<?xml version="1.0" encoding="UTF-8"?>
<svg id="Calque_1" xmlns="http://www.w3.org/2000/svg" version="1.1" viewBox="0 0 24.7 28.7">
  <!-- Generator: Adobe Illustrator 29.0.1, SVG Export Plug-In . SVG Version: 2.1.0 Build 192)  -->
  <defs>
    <style>
      .st0 {
        fill: none;
        stroke: #fff;
        stroke-linecap: round;
        stroke-linejoin: round;
      }
    </style>
  </defs>
  <path class="st0" d="M10.5,1.7c1.1-.3,3.6-.9,4.2-.6M14.7,1.1c.7.4.8,2.8,1,3.7M14.7,1.1L1.4,22.6s-.7,1.1-.3,1.8c.3.7,2,.7,2,.7h20.5M23.7,25c0-.8-2.4-2.4-2.6-2.7M23.7,25c0,.8-1.9,1.9-2.6,2.7"/>
  <path class="st0" d="M6.3,15c2.5.4,4.4,1.6,5.5,3.4,1.3,1.8,1.4,4.3.7,6.3"/>
</svg>