<svg xmlns="http://www.w3.org/2000/svg" width="100" height="95.835" viewBox="0 0 100 95.835">
  <path id="icon-git" d="M50,.5C22.375.5,0,22.5,0,49.633A49.215,49.215,0,0,0,34.187,96.25c2.5.462,3.417-1.058,3.417-2.362,0-1.167-.042-4.258-.063-8.354C23.633,88.5,20.7,78.942,20.7,78.942c-2.275-5.671-5.562-7.187-5.562-7.187-4.529-3.046.35-2.983.35-2.983,5.021.342,7.658,5.063,7.658,5.063,4.458,7.512,11.7,5.342,14.563,4.088a10.4,10.4,0,0,1,3.167-6.571C29.771,70.121,18.1,65.9,18.1,47.071a18.772,18.772,0,0,1,5.146-13.183c-.563-1.242-2.25-6.237.438-13,0,0,4.188-1.317,13.75,5.038a47.94,47.94,0,0,1,25,0c9.5-6.354,13.687-5.038,13.687-5.038,2.688,6.767,1,11.763.5,13a18.848,18.848,0,0,1,5.125,13.183c0,18.875-11.688,23.029-22.813,24.237,1.75,1.475,3.375,4.488,3.375,9.092,0,6.575-.063,11.858-.063,13.454,0,1.287.875,2.825,3.437,2.333A49.066,49.066,0,0,0,100,49.633C100,22.5,77.612.5,50,.5Z" transform="translate(0 -0.5)" fill="#eee"/>
</svg>
