<svg xmlns="http://www.w3.org/2000/svg" width="84.101" height="95.38" viewBox="0 0 84.101 95.38">
  <g id="icon-css" transform="translate(-74.633 -100.62)">
    <path id="polygon2989" d="M158.734,100.62l-7.662,85.832L116.632,196l-34.345-9.535L74.633,100.62Z" fill="#264de4"/>
    <path id="polygon2991" d="M283.829,204.241l6.548-73.347H256v81.063Z" transform="translate(-139.316 -23.255)" fill="#2965f1"/>
    <path id="polygon2993" d="M150.31,268.217l.944,10.528h23.561V268.217Z" transform="translate(-58.131 -128.739)" fill="#ebebeb"/>
    <path id="polygon2995" d="M168.533,176.3h-26.4l.957,10.529h25.444Z" transform="translate(-51.849 -58.137)" fill="#ebebeb"/>
    <path id="polygon2997" d="M179.5,358.838V347.884l-.046.012-11.726-3.166-.75-8.4H156.409l1.475,16.531,21.567,5.987Z" transform="translate(-62.816 -181.062)" fill="#ebebeb"/>
    <path id="polygon3005" d="M268.808,208.144,267.586,221.8l-11.743,3.169v10.954l21.584-5.982.158-1.779,2.474-27.718.257-2.827,1.9-21.31H255.843v10.529h14.836l-.958,10.781H255.843v10.528Z" transform="translate(-139.196 -58.137)" fill="#fff"/>
  </g>
</svg>
