<?xml version="1.0" encoding="UTF-8"?>
<svg id="Calque_1" xmlns="http://www.w3.org/2000/svg" version="1.1" viewBox="0 0 512 512">
  <!-- Generator: Adobe Illustrator 29.0.1, SVG Export Plug-In . SVG Version: 2.1.0 Build 192)  -->
  <defs>
    <style>
      .st0 {
        fill: #00dc82;
      }
    </style>
  </defs>
  <path class="st0" d="M286.7,427h189.4c6,0,11.8-2.1,17.1-5.1,5.2-3,10.6-6.8,13.7-11.9,3-5.2,5.1-11.1,5.1-17.1,0-6-2.1-11.9-5.1-17.1l-128-220.2c-3-5.2-6.7-9-11.9-11.9-5.2-3-12.7-5.1-18.8-5.1s-11.8,2.1-17.1,5.1c-5.2,3-8.9,6.8-11.9,11.9l-32.4,56.3-64.9-109.2c-3-5.2-6.7-10.7-11.9-13.6-5.2-3-11-3.4-17.1-3.4s-11.8.4-17.1,3.4c-5.2,3-10.6,8.5-13.7,13.6L3.4,375.8C.4,381,0,386.9,0,392.9c0,6,.4,11.9,3.4,17.1,3,5.2,8.4,9,13.7,11.9,5.2,3,11,5.1,17.1,5.1h119.5c47.3,0,81.8-21.2,105.8-61.4l58-100.7,30.7-52.9,93.9,160.4h-124.6l-30.7,54.6ZM151.9,372.4h-83.6l124.6-215,63.1,107.5-41.8,72.9c-16,26.1-34.1,34.6-62.3,34.6Z"/>
</svg>