<?xml version="1.0" encoding="UTF-8"?>
<svg id="Calque_1" xmlns="http://www.w3.org/2000/svg" version="1.1" viewBox="0 0 27.7 27.7">
  <!-- Generator: Adobe Illustrator 29.0.1, SVG Export Plug-In . SVG Version: 2.1.0 Build 192)  -->
  <defs>
    <style>
      .st0 {
        fill: none;
        stroke: #fff;
        stroke-linecap: round;
        stroke-linejoin: round;
      }
    </style>
  </defs>
  <path class="st0" d="M13.8,3.8c0-1.8-1.5-3.3-3.3-3.3s-3.3,1.5-3.3,3.3c-2.2,0-4,1.8-4,4,0,.7.2,1.4.6,2.1-2.2.4-3.6,2.5-3.2,4.7.3,1.6,1.6,2.9,3.2,3.2-1.1,1.9-.5,4.3,1.4,5.5.6.4,1.3.6,2.1.6,0,1.8,1.5,3.3,3.3,3.3s3.3-1.5,3.3-3.3"/>
  <path class="st0" d="M13.8,23.8c0,1.8,1.5,3.3,3.3,3.3s3.3-1.5,3.3-3.3c2.2,0,4-1.8,4-4,0-.7-.2-1.4-.6-2.1,2.2-.4,3.6-2.5,3.2-4.7-.3-1.6-1.6-2.9-3.2-3.2,1.1-1.9.5-4.3-1.3-5.5-.6-.4-1.3-.6-2.1-.6,0-1.8-1.5-3.3-3.3-3.3-1.8,0-3.3,1.5-3.3,3.3h0"/>
  <path class="st0" d="M11.8,7.2v2.6M7.2,11.8h2.7M17.9,11.8h2.7M17.9,15.8h2.7M7.2,15.8h2.7M11.8,17.9v2.6M15.8,17.9v2.6M15.8,7.2v2.6M11.2,17.8h5.3c.7,0,1.3-.6,1.3-1.3v-5.3c0-.7-.6-1.3-1.3-1.3h-5.3c-.7,0-1.3.6-1.3,1.3v5.3c0,.7.6,1.3,1.3,1.3"/>
</svg>