<svg xmlns="http://www.w3.org/2000/svg" width="50.542" height="73.968" viewBox="0 0 50.542 73.968">
  <g id="icon-autonomie" transform="translate(-1507 -6830)">
    <path id="Path_256" data-name="Path 256" d="M9.548,66.527c.046-1.786-.207-3.672,1.852-4.6.171-.077.214-.618.188-.932-.971-11.044,4.143-19.5,11.8-26.8A50.157,50.157,0,0,0,16.8,32.621,4.489,4.489,0,0,0,13.86,34a8.55,8.55,0,0,1-12.284-.538C.348,32.089-.288,30.91.378,29.108a2.879,2.879,0,0,0-.135-1.992c-.628-1.375.045-2.037,1.04-2.818,3.213-2.522,6.409-5.073,9.5-7.746a32,32,0,0,0,2.613-3.3,5.743,5.743,0,0,1,1.849-1.407c1.539-.708,3.143-1.274,4.709-1.894-.621-2.573-.58-2.637,1.98-3.14,2.4-.471,2.4-.471,2.293-2.957A23.942,23.942,0,0,1,24.077,1.3,1.659,1.659,0,0,1,24.722.074,1.489,1.489,0,0,1,26.074.32a36.146,36.146,0,0,1,4.1,4.3,4.274,4.274,0,0,0,2.594,1.619,41.154,41.154,0,0,1,6.3,2.025C48.609,12.646,49.615,21,47.674,30.376c-.088.553-.974.978-1.492,1.462-.259-.647-.774-1.311-.732-1.938.133-1.976.634-3.932.706-5.907C46.561,14.2,39.581,9.64,30.68,8.368c-1.062-.194-1.75-.447-2.142-1.542a7.107,7.107,0,0,0-1.679-2.29c-.06,2.9-1.023,4.844-4.347,4.576.374,2.208-.823,3.165-2.491,3.628-2.886.8-4.856,2.645-6.873,4.826-2.715,2.935-6.029,5.326-9.155,7.865-.825.67-1.42,1.209-1.067,2.366a3.866,3.866,0,0,1-.01,1.52,3.529,3.529,0,0,0,2.713,4.161c2.557.7,4.9.906,6.975-1.469A5.521,5.521,0,0,1,19,30.545a13.832,13.832,0,0,0,8.212.576c.569-.146,1.281.268,1.928.423-.283.611-.4,1.434-.875,1.8a40.563,40.563,0,0,0-10.173,10.9,26.946,26.946,0,0,0-4.151,16.071c.069,1.063.3,1.653,1.562,1.647,7.783-.041,15.567-.013,23.351-.013.275,0,.551-.059.983-.108-.228-1.223-.5-2.356-.644-3.5-.831-6.611.851-12.852,2.865-19.037a9.242,9.242,0,0,1,.935-2.365c.336-.493,1.06-.721,1.611-1.067.176.624.626,1.321.481,1.859-.91,3.394-2.084,6.72-2.916,10.131a24.721,24.721,0,0,0-.232,12.31,2.419,2.419,0,0,0,1.737,2.022c.71.228,1.28,1.288,1.637,2.1a6.836,6.836,0,0,1,.164,2.238c.377.08.693.173,1.016.212a4.545,4.545,0,0,1,3.674,6.336,1.292,1.292,0,0,1-.828.733,28.471,28.471,0,0,1-4.246-.006,1.481,1.481,0,0,1-.933-1.132c.344-1.518,2.309-1.191,3.492-1.257.213-1.9-.095-2.264-2-2.268-12.1-.02-24.2.018-36.305,0-1.436,0-2.3.475-1.968,2.273,8.277.231,16.561.014,24.843.079a3.608,3.608,0,0,1,1.51.094c.426.213.957.764.946,1.153s-.586.847-1.017,1.1c-8.8.2-17.731,0-26.57.066-2.074,0-2.273-.211-2.279-2.215-.011-3.481.834-4.44,4.745-5.162m2.656.063c9.8.363,19.672.013,29.5.151.919,0,1.318-.27,1.316-1.262,0-1.122-.665-1.117-1.451-1.116-9.249.008-18.5.038-27.746-.016-1.664-.01-2.169.551-1.617,2.244" transform="translate(1507 6830)" fill="#eee"/>
    <path id="Path_257" data-name="Path 257" d="M62.7,111.263c.412.351.966.6,1,.91a2.228,2.228,0,0,1-.4,1.5c-1.042,1.335-2.342,2.489-3.253,3.9-1.435,2.223-2.657,4.586-3.918,6.918-.4.737-.783,1.637-1.691.994a2.151,2.151,0,0,1-.4-1.97,33.212,33.212,0,0,1,7.37-11.28,11.153,11.153,0,0,1,1.286-.972" transform="translate(1471.437 6756.668)" fill="#eee"/>
    <path id="Path_258" data-name="Path 258" d="M85.623,33.584a20.9,20.9,0,0,1,10.188,5.732c.639.67,1.164,1.511.26,2.157-.355.254-1.516-.084-1.916-.517a18.142,18.142,0,0,0-8.211-4.963,2.331,2.331,0,0,1-1.184-1.368c-.083-.231.6-.738.864-1.041" transform="translate(1451.141 6807.865)" fill="#eee"/>
    <path id="Path_259" data-name="Path 259" d="M111.742,212.09a3.4,3.4,0,0,1-1.331-.144c-.379-.217-.886-.763-.835-1.084.293-1.827,1.806-1.064,2.865-1.176.887-.094,2.013.121,1.667,1.24-.205.664-.367.663-1.1,1.164-.089-.123-1.178.123-1.267,0" transform="translate(1434.782 6691.842)" fill="#eee"/>
    <path id="Path_260" data-name="Path 260" d="M48.043,164.7a9.467,9.467,0,0,1,.394-2.276c.223-.456.776-.752,1.182-1.119.391.462.993.873,1.118,1.4a3.028,3.028,0,0,1-.265,1.96c-.282.534-.941.869-1.434,1.292l-1-1.257" transform="translate(1475.335 6723.687)" fill="#eee"/>
  </g>
</svg>
