<svg xmlns="http://www.w3.org/2000/svg" width="54.84" height="70.195" viewBox="0 0 54.84 70.195">
  <g id="icon-organisation" transform="translate(-56)">
    <path id="Path_240" data-name="Path 240" d="M119.459,159.836l6.41-7.711a1.028,1.028,0,1,0-1.582-1.315l-5.494,6.61-1.2-1.951a1.028,1.028,0,0,0-1.751,1.078l1.952,3.17A1.029,1.029,0,0,0,119.459,159.836Z" transform="translate(-51.505 -129.814)" fill="#eee"/>
    <path id="Path_241" data-name="Path 241" d="M115.842,255.546l1.952,3.17a1.028,1.028,0,0,0,1.666.118l6.41-7.711a1.028,1.028,0,0,0-1.582-1.315l-5.494,6.61-1.2-1.951a1.028,1.028,0,1,0-1.751,1.078Z" transform="translate(-51.506 -215.24)" fill="#eee"/>
    <path id="Path_242" data-name="Path 242" d="M115.842,355.213l1.952,3.17a1.028,1.028,0,0,0,1.666.118l6.41-7.711a1.028,1.028,0,1,0-1.582-1.315l-5.494,6.61-1.2-1.951a1.028,1.028,0,1,0-1.751,1.078Z" transform="translate(-51.506 -301.242)" fill="#eee"/>
    <path id="Path_243" data-name="Path 243" d="M109.812,186.888a1.028,1.028,0,0,0-1.028,1.028V195.4a1.578,1.578,0,0,1-1.577,1.577H59.633a1.578,1.578,0,0,1-1.577-1.577V150.337a1.028,1.028,0,1,0-2.057,0V195.4a3.637,3.637,0,0,0,3.633,3.633h47.574a3.637,3.637,0,0,0,3.633-3.633v-7.485A1.028,1.028,0,0,0,109.812,186.888Z" transform="translate(0 -128.839)" fill="#eee"/>
    <path id="Path_244" data-name="Path 244" d="M107.207,7.923h-5.03V3.674a3.674,3.674,0,0,0-7.349,0V7.923H87.094V3.674a3.674,3.674,0,0,0-7.349,0V7.923H72.012V3.674a3.674,3.674,0,0,0-7.349,0V7.923h-5.03A3.637,3.637,0,0,0,56,11.556V16.7a1.028,1.028,0,1,0,2.057,0V11.556A1.578,1.578,0,0,1,59.633,9.98h5.03v1.633a3.674,3.674,0,1,0,7.349,0V9.98h7.734v1.633a3.674,3.674,0,1,0,7.349,0V9.98h7.734v1.633a3.674,3.674,0,0,0,7.349,0V9.98h5.03a1.578,1.578,0,0,1,1.577,1.577V54.279a1.028,1.028,0,1,0,2.057,0V11.556a3.637,3.637,0,0,0-3.633-3.633ZM69.955,11.612a1.618,1.618,0,1,1-3.236,0V3.674a1.618,1.618,0,0,1,3.236,0Zm15.083,0a1.618,1.618,0,1,1-3.236,0V3.674a1.618,1.618,0,0,1,3.236,0Zm15.083,0a1.618,1.618,0,0,1-3.236,0V3.674a1.618,1.618,0,0,1,3.236,0Z" transform="translate(0)" fill="#eee"/>
    <path id="Path_245" data-name="Path 245" d="M201.461,184.627h21.662a3.222,3.222,0,0,0,0-6.444H201.461a3.222,3.222,0,1,0,0,6.444Zm0-4.387h21.662a1.165,1.165,0,0,1,0,2.331H201.461a1.165,1.165,0,1,1,0-2.331Z" transform="translate(-122.738 -153.754)" fill="#eee"/>
    <path id="Path_246" data-name="Path 246" d="M201.461,283.84h21.662a3.222,3.222,0,1,0,0-6.444H201.461a3.222,3.222,0,1,0,0,6.444Zm0-4.387h21.662a1.165,1.165,0,0,1,0,2.331H201.461a1.165,1.165,0,1,1,0-2.331Z" transform="translate(-122.738 -239.365)" fill="#eee"/>
    <path id="Path_247" data-name="Path 247" d="M201.461,383.052h21.662a3.222,3.222,0,0,0,0-6.444H201.461a3.222,3.222,0,0,0,0,6.444Zm0-4.387h21.662a1.165,1.165,0,1,1,0,2.331H201.461a1.165,1.165,0,1,1,0-2.331Z" transform="translate(-122.738 -324.975)" fill="#eee"/>
  </g>
</svg>
