<svg xmlns="http://www.w3.org/2000/svg" xmlns:xlink="http://www.w3.org/1999/xlink" width="79.013" height="71.023" viewBox="0 0 79.013 71.023">
  <defs>
    <clipPath id="clip-path">
      <rect id="Rectangle_23" data-name="Rectangle 23" width="79.013" height="71.023" fill="none"/>
    </clipPath>
  </defs>
  <g id="icon-agile" clip-path="url(#clip-path)">
    <path id="Path_123" data-name="Path 123" d="M41.365,73.014a1.6,1.6,0,0,1-1.066-.426A27.954,27.954,0,0,1,48.933,25.8a1.6,1.6,0,1,1,1.172,2.984C33.052,35.141,28.9,58.2,42.431,70.243a1.6,1.6,0,0,1-1.066,2.771" transform="translate(-20.049 -16.561)" fill="#eee"/>
    <path id="Path_124" data-name="Path 124" d="M64.909,30.708a1.6,1.6,0,0,0-2.558,1.918L64.767,35.9a1.6,1.6,0,0,0,2.416.178l9.7-9.806a1.6,1.6,0,1,0-2.274-2.238l-2.771,2.807a9.521,9.521,0,0,0-7.248-2.878,27.925,27.925,0,0,0-24.94-16.52l4.619-4.619A1.608,1.608,0,0,0,41.993.545L34.426,8.077a1.67,1.67,0,0,0,0,2.629l7.532,7.745a1.583,1.583,0,0,0,2.274-2.2L38.8,10.6a24.727,24.727,0,0,1,22.56,14.033,9.528,9.528,0,0,0,1.35,18.012,24.727,24.727,0,0,1-23.7,17.515H15.17v-4.37a1.6,1.6,0,0,0-1.6-1.6H1.6a1.6,1.6,0,0,0-1.6,1.6V67.763a1.6,1.6,0,0,0,1.6,1.6H13.571a1.6,1.6,0,0,0,1.6-1.6V63.358H39.045a27.925,27.925,0,0,0,26.965-20.5,9.486,9.486,0,0,0,8.42-8.242,1.6,1.6,0,1,0-3.162-.391,6.313,6.313,0,1,1-1.705-5.151l-3.34,3.375ZM11.973,66.165H3.2V57.389h8.775Z" transform="translate(0 -0.048)" fill="#eee"/>
    <path id="Path_125" data-name="Path 125" d="M181.191,157.414l-7.709,7.745a1.608,1.608,0,1,1-2.274-2.274l4.974-5.009H160.8a1.6,1.6,0,0,1,0-3.2h15.49l-5.08-5.223a1.608,1.608,0,0,1,2.309-2.238l7.709,7.923a1.6,1.6,0,0,1,0,2.238" transform="translate(-102.64 -94.601)" fill="#eee"/>
    <path id="Path_126" data-name="Path 126" d="M95.472,24.951l.178.178a1.6,1.6,0,0,1,0-2.629l-.178.178a1.6,1.6,0,0,0,0,2.238" transform="translate(-61.224 -14.506)" fill="#eee"/>
  </g>
</svg>
