<svg id="icon-bootstrap" xmlns="http://www.w3.org/2000/svg" width="78.127" height="78.126" viewBox="0 0 78.127 78.126">
  <path id="Path_158" data-name="Path 158" d="M78.127,65.105A13.059,13.059,0,0,1,65.105,78.127H13.021A13.059,13.059,0,0,1,0,65.105V13.021A13.059,13.059,0,0,1,13.021,0H65.105A13.059,13.059,0,0,1,78.127,13.021Z" fill="#563d7c"/>
  <path id="Path_159" data-name="Path 159" d="M166.3,133h22.149q6.128,0,9.83,2.808c2.464,1.877,3.7,4.7,3.7,8.489a10.155,10.155,0,0,1-1.685,5.9,10.854,10.854,0,0,1-4.825,3.8v.128a9.991,9.991,0,0,1,6.383,3.983,13.228,13.228,0,0,1,2.17,7.762,12.989,12.989,0,0,1-.957,5,10.112,10.112,0,0,1-3,4.021,15.291,15.291,0,0,1-5.234,2.681,25.667,25.667,0,0,1-7.6,1H166.3Zm7.979,19.085H187.3a7.074,7.074,0,0,0,4.787-1.634,5.847,5.847,0,0,0,1.915-4.7c0-2.3-.574-3.919-1.723-4.851a7.737,7.737,0,0,0-4.979-1.4H174.279v12.587Zm0,19.978h14.106a7.873,7.873,0,0,0,5.642-1.889,6.957,6.957,0,0,0,2.017-5.336,6.642,6.642,0,0,0-2.017-5.208,8.064,8.064,0,0,0-5.642-1.813H174.279Z" transform="translate(-145.07 -116.022)" fill="#fff"/>
</svg>
