<svg id="icon-teamwork" xmlns="http://www.w3.org/2000/svg" width="74" height="74" viewBox="0 0 74 74">
  <path id="Path_160" data-name="Path 160" d="M165.5,184.581l2.229,2.229a1.974,1.974,0,0,0,2.793,0l1.4-1.4c.224.1.453.2.685.284v1.973a1.977,1.977,0,0,0,1.975,1.975h3.153a1.977,1.977,0,0,0,1.975-1.975V185.7c.232-.086.461-.181.685-.284l1.4,1.4a1.978,1.978,0,0,0,2.792,0l2.229-2.229a1.977,1.977,0,0,0,0-2.793l-1.4-1.4c.1-.224.2-.453.284-.685h1.973a1.977,1.977,0,0,0,1.975-1.975v-3.153a1.977,1.977,0,0,0-1.975-1.975H185.7c-.086-.232-.181-.461-.284-.685l1.4-1.4a1.977,1.977,0,0,0,0-2.793l-2.23-2.229a1.977,1.977,0,0,0-2.793,0l-1.4,1.4c-.224-.1-.453-.2-.685-.284v-1.973a1.977,1.977,0,0,0-1.975-1.975h-3.153a1.977,1.977,0,0,0-1.975,1.975v1.973c-.232.086-.461.181-.685.284l-1.4-1.4a1.973,1.973,0,0,0-2.793,0l-2.229,2.229a1.977,1.977,0,0,0,0,2.793l1.4,1.395c-.1.224-.2.453-.284.685h-1.973a1.977,1.977,0,0,0-1.975,1.975v3.153a1.977,1.977,0,0,0,1.975,1.975h1.973c.086.232.181.461.284.685l-1.4,1.4A1.977,1.977,0,0,0,165.5,184.581Zm1.248-7.041h-1.916v-2.766h1.916a1.974,1.974,0,0,0,1.858-1.307,7.967,7.967,0,0,1,.308-.744,1.975,1.975,0,0,0-.389-2.238l-1.355-1.355,1.956-1.956,1.355,1.355a1.975,1.975,0,0,0,2.239.389,8.012,8.012,0,0,1,.744-.308,1.974,1.974,0,0,0,1.307-1.858v-1.916h2.766v1.916a1.974,1.974,0,0,0,1.307,1.858,7.963,7.963,0,0,1,.744.308,1.975,1.975,0,0,0,2.238-.389l1.355-1.355,1.956,1.956-1.355,1.355a1.975,1.975,0,0,0-.389,2.238,8,8,0,0,1,.308.744,1.974,1.974,0,0,0,1.858,1.307h1.916v2.766h-1.916a1.974,1.974,0,0,0-1.857,1.307,8.006,8.006,0,0,1-.308.744,1.975,1.975,0,0,0,.389,2.238l1.355,1.355-1.956,1.956-1.355-1.355a1.975,1.975,0,0,0-2.238-.389,7.925,7.925,0,0,1-.744.308,1.974,1.974,0,0,0-1.307,1.858v1.916h-2.766v-1.916a1.974,1.974,0,0,0-1.307-1.857,8,8,0,0,1-.744-.308,1.975,1.975,0,0,0-2.238.389l-1.355,1.355-1.956-1.956,1.355-1.355a1.975,1.975,0,0,0,.388-2.238,7.968,7.968,0,0,1-.308-.744,1.974,1.974,0,0,0-1.858-1.307Z" transform="translate(-139.156 -139.157)" fill="#eee"/>
  <path id="Path_161" data-name="Path 161" d="M221.756,227.541a5.786,5.786,0,1,0-5.786-5.786A5.792,5.792,0,0,0,221.756,227.541Zm0-9.4a3.618,3.618,0,1,1-3.618,3.617A3.622,3.622,0,0,1,221.756,218.138Z" transform="translate(-184.756 -184.756)" fill="#eee"/>
  <path id="Path_162" data-name="Path 162" d="M13.617,27.235A13.618,13.618,0,1,0,0,13.617,13.626,13.626,0,0,0,13.617,27.235Zm7.256-4.768a11.425,11.425,0,0,1-14.512,0,3.74,3.74,0,0,1,3.737-3.8h7.037a3.74,3.74,0,0,1,3.737,3.8Zm-7.256-20.3a11.442,11.442,0,0,1,9.119,18.363,5.915,5.915,0,0,0-5.6-4.035H10.1a5.915,5.915,0,0,0-5.6,4.035A11.442,11.442,0,0,1,13.617,2.168Z" transform="translate(0)" fill="#eee"/>
  <path id="Path_163" data-name="Path 163" d="M337.18,323.562A13.618,13.618,0,1,0,350.8,337.18,13.633,13.633,0,0,0,337.18,323.562Zm7.256,22.467a11.423,11.423,0,0,1-14.512,0,3.74,3.74,0,0,1,3.737-3.8H340.7A3.739,3.739,0,0,1,344.435,346.029Zm1.863-1.936a5.915,5.915,0,0,0-5.6-4.035h-7.037a5.914,5.914,0,0,0-5.6,4.035,11.45,11.45,0,1,1,18.237,0Z" transform="translate(-276.797 -276.797)" fill="#eee"/>
  <path id="Path_164" data-name="Path 164" d="M66.59,37.425a5.3,5.3,0,0,0,0-7.495h0a5.3,5.3,0,1,0,0,7.495Zm-5.962-5.962a3.135,3.135,0,0,1,4.429,0h0a3.132,3.132,0,1,1-4.429,0Z" transform="translate(-49.226 -24.275)" fill="#eee"/>
  <path id="Path_165" data-name="Path 165" d="M59.118,361.009a5.3,5.3,0,1,0,7.495-7.495h0a5.3,5.3,0,1,0-7.494,7.495Zm1.533-5.962a3.132,3.132,0,1,1,0,4.429A3.135,3.135,0,0,1,60.651,355.047Z" transform="translate(-49.248 -301.095)" fill="#eee"/>
  <path id="Path_166" data-name="Path 166" d="M382.681,29.951a5.3,5.3,0,1,0,7.495,0h0A5.306,5.306,0,0,0,382.681,29.951Zm5.962,5.962a3.132,3.132,0,1,1,0-4.429h0A3.13,3.13,0,0,1,388.643,35.913Z" transform="translate(-326.046 -24.296)" fill="#eee"/>
  <path id="Path_167" data-name="Path 167" d="M390.176,353.514a5.3,5.3,0,1,0,0,7.495A5.306,5.306,0,0,0,390.176,353.514Zm-1.533,5.962a3.132,3.132,0,1,1,0-4.429A3.135,3.135,0,0,1,388.643,359.476Z" transform="translate(-326.046 -301.095)" fill="#eee"/>
  <path id="Path_168" data-name="Path 168" d="M216.033,88.886a1.084,1.084,0,0,0,0-2.168H202.392a1.084,1.084,0,0,0,0,2.168Z" transform="translate(-172.213 -74.185)" fill="#eee"/>
  <path id="Path_169" data-name="Path 169" d="M202.393,410.281a1.084,1.084,0,0,0,0,2.168h13.641a1.084,1.084,0,0,0,0-2.168Z" transform="translate(-172.214 -350.982)" fill="#eee"/>
  <path id="Path_170" data-name="Path 170" d="M88.886,216.033V202.392a1.084,1.084,0,0,0-2.168,0v13.641a1.084,1.084,0,0,0,2.168,0Z" transform="translate(-74.185 -172.213)" fill="#eee"/>
  <path id="Path_171" data-name="Path 171" d="M412.448,216.033V202.392a1.084,1.084,0,1,0-2.168,0v13.641a1.084,1.084,0,1,0,2.168,0Z" transform="translate(-350.982 -172.213)" fill="#eee"/>
  <path id="Path_172" data-name="Path 172" d="M348.416,11.408a1.084,1.084,0,1,0,2.128-.416,13.617,13.617,0,1,0-.05,5.494,1.084,1.084,0,1,0-2.12-.455,11.316,11.316,0,0,1-2.077,4.5,5.914,5.914,0,0,0-5.6-4.031h-7.037a5.915,5.915,0,0,0-5.6,4.035,11.447,11.447,0,1,1,20.355-9.123Zm-14.754,7.256H340.7a3.742,3.742,0,0,1,3.737,3.737v.053a11.4,11.4,0,0,1-14.512.013A3.74,3.74,0,0,1,333.661,18.664Z" transform="translate(-276.797)" fill="#eee"/>
  <path id="Path_173" data-name="Path 173" d="M13.617,352.308a13.619,13.619,0,0,0,2.747-26.958,1.084,1.084,0,0,0-.435,2.124,11.443,11.443,0,0,1,6.807,18.13,5.915,5.915,0,0,0-5.6-4.035H10.1A5.915,5.915,0,0,0,4.5,345.6a11.443,11.443,0,0,1,6.807-18.13,1.084,1.084,0,0,0-.435-2.124,13.619,13.619,0,0,0,2.747,26.958ZM10.1,343.737h7.037a3.74,3.74,0,0,1,3.737,3.8,11.425,11.425,0,0,1-14.512,0,3.74,3.74,0,0,1,3.737-3.8Z" transform="translate(0 -278.308)" fill="#eee"/>
</svg>
