<svg xmlns="http://www.w3.org/2000/svg" xmlns:xlink="http://www.w3.org/1999/xlink" width="71" height="71" viewBox="0 0 71 71">
  <defs>
    <clipPath id="clip-path">
      <rect id="Rectangle_35" data-name="Rectangle 35" width="71" height="71" transform="translate(0.003 0.004)" fill="#eee"/>
    </clipPath>
  </defs>
  <g id="icon-optimisation" transform="translate(-0.003 -0.003)">
    <g id="Group_75" data-name="Group 75" clip-path="url(#clip-path)">
      <path id="Path_248" data-name="Path 248" d="M21.388,60.23c2.009.819,3.645,1.565,5.339,2.144a1.372,1.372,0,0,1,1.1,1.6c-.063,1.264-.059,2.535-.01,3.8a3.091,3.091,0,0,0,3.073,3.18q4.591.1,9.187,0a3.047,3.047,0,0,0,3.068-3.011,22.61,22.61,0,0,0,.018-3.482A1.824,1.824,0,0,1,44.694,62.2c1.558-.457,3.168-1.924,4.5-1.658,1.4.281,2.483,2.108,3.737,3.222a2.988,2.988,0,0,0,4.407.042q3.328-3.163,6.493-6.5a2.951,2.951,0,0,0,.017-4.286,21.5,21.5,0,0,0-2.456-2.467,1.809,1.809,0,0,1-.494-2.68c.784-1.42.891-3.586,2.019-4.341,1.187-.794,3.235-.283,4.9-.378a3.108,3.108,0,0,0,3.151-3.267c.043-2.957.048-5.915,0-8.871a3.107,3.107,0,0,0-3.216-3.2c-1.318-.045-2.648.079-3.955-.049a1.954,1.954,0,0,1-1.318-.944c-.681-1.365-1.137-2.842-1.808-4.212a1.276,1.276,0,0,1,.323-1.772c.971-.893,1.912-1.824,2.791-2.807a2.981,2.981,0,0,0-.014-4.405q-3.11-3.269-6.38-6.386a3.025,3.025,0,0,0-4.527.029,15.183,15.183,0,0,0-2,2.022,2.182,2.182,0,0,1-3.317.644c-1.305-.763-3.36-.839-4.051-1.894-.735-1.124-.256-3.042-.307-4.613a3.2,3.2,0,0,0-3.5-3.421c-2.165-.027-4.33-.006-6.495-.006-4.8,0-5.367.559-5.393,5.342-.015,2.77-.019,2.761-2.493,3.763a28.757,28.757,0,0,1-2.764,1.171,2,2,0,0,1-1.588-.257c-1.016-.832-1.868-1.862-2.841-2.752a3.011,3.011,0,0,0-4.522-.036q-3.264,3.116-6.382,6.385a2.975,2.975,0,0,0-.009,4.4,47.623,47.623,0,0,0,3.7,3.684c.363.319,1.093.221,1.655.314-.081-.6.046-1.374-.282-1.769A37.669,37.669,0,0,0,9.06,16.982c-.817-.771-.9-1.445-.054-2.267Q11.9,11.9,14.718,9c.824-.846,1.5-.752,2.267.061,1.051,1.112,2.173,2.157,3.237,3.258a1.877,1.877,0,0,0,2.425.356c1.914-.876,3.859-1.7,5.834-2.424A1.863,1.863,0,0,0,29.9,8.266c-.019-1.531.028-3.063.01-4.594-.012-1.044.428-1.572,1.5-1.57,2.693.007,5.386.006,8.079-.017,1.138-.01,1.623.509,1.6,1.641a30.568,30.568,0,0,0,.063,4.586A2.76,2.76,0,0,0,42.44,10.15c1.927.963,3.987,1.654,5.95,2.55a1.891,1.891,0,0,0,2.417-.427c1.07-1.1,2.19-2.142,3.241-3.254.8-.848,1.477-.782,2.267.029,1.84,1.892,3.7,3.764,5.6,5.6a1.4,1.4,0,0,1-.034,2.384c-1.082,1.006-2.077,2.1-3.144,3.127a1.953,1.953,0,0,0-.4,2.554c.871,1.858,1.673,3.756,2.363,5.688a1.929,1.929,0,0,0,2.087,1.51c1.478-.032,2.958.032,4.435,0,1.11-.028,1.684.393,1.674,1.558q-.035,4.039-.015,8.079c0,1.055-.465,1.548-1.532,1.537a33.958,33.958,0,0,0-4.744.083A2.758,2.758,0,0,0,60.816,42.5c-.938,1.88-1.6,3.894-2.489,5.8a1.952,1.952,0,0,0,.421,2.55c1.109,1.055,2.156,2.175,3.261,3.235a1.29,1.29,0,0,1,0,2.151q-2.939,2.884-5.828,5.82a1.236,1.236,0,0,1-2.033,0c-1.105-1.134-2.249-2.231-3.35-3.369a1.88,1.88,0,0,0-2.419-.4c-1.914.877-3.858,1.7-5.833,2.427a1.864,1.864,0,0,0-1.462,1.958c.018,1.531-.035,3.063-.007,4.594.021,1.142-.493,1.628-1.621,1.62q-3.96-.028-7.919.014c-1.24.015-1.68-.578-1.641-1.762.047-1.477-.017-2.957,0-4.435a1.857,1.857,0,0,0-1.43-1.98c-1.929-.7-3.837-1.479-5.69-2.359A2.026,2.026,0,0,0,20.1,58.8c-1.014,1.074-2.113,2.07-3.127,3.144a1.343,1.343,0,0,1-2.268.029q-2.817-2.893-5.709-5.714a1.289,1.289,0,0,1-.027-2.15c1.1-1.061,2.15-2.181,3.254-3.242a1.959,1.959,0,0,0,.448-2.547c-.889-1.908-1.7-3.86-2.421-5.836a1.861,1.861,0,0,0-2.007-1.4c-1.531.022-3.063-.021-4.593,0-1.059.016-1.558-.456-1.552-1.517.015-2.693.03-5.386.008-8.079-.009-1.157.533-1.6,1.651-1.582a43.993,43.993,0,0,0,4.59-.055A2.37,2.37,0,0,0,10,28.965a9.059,9.059,0,0,0,.947-2.835c.066-.336-.308-1.044-.57-1.091a1.9,1.9,0,0,0-1.3.482,1.7,1.7,0,0,0-.419,1c-.173,1.023-.723,1.38-1.756,1.3a33.973,33.973,0,0,0-3.483,0A3.167,3.167,0,0,0,.013,31.32C-.012,33.379.007,35.438.007,37.5c0,5.229.45,5.762,5.671,5.629,1.832-.047,2.968.267,3.359,2.261.208,1.062.932,2.013,1.249,3.066a1.988,1.988,0,0,1-.276,1.585c-.794.979-1.779,1.8-2.642,2.727-1.484,1.593-1.509,3.19,0,4.762q2.963,3.082,6.046,6.049c1.633,1.576,3.238,1.563,4.87-.026,1.094-1.065,2.09-2.229,3.1-3.321M13.169,35.306a20.439,20.439,0,0,0,4.243,13.151,49.313,49.313,0,0,0,6.551,6.089c.34.292,1.182,0,1.792-.025a10.612,10.612,0,0,0-.7-1.653c-.176-.282-.608-.4-.91-.61A19.72,19.72,0,0,1,15.269,36.1c-.442-14.657,13.949-24.611,27.815-19.394.826.311,1.99,1.426,2.569,0,.593-1.459-1.014-1.613-1.889-1.96a22.348,22.348,0,0,0-30.6,20.556m44.646.2A22.244,22.244,0,0,0,51.384,19.8a13.422,13.422,0,0,0-2.175-1.829,1.259,1.259,0,0,0-1.219.164,1.457,1.457,0,0,0-.062,1.251c.139.354.578.592.891.874a20.232,20.232,0,0,1-16.666,35.2c-.935-.145-1.842-.515-2.777-.59a1.407,1.407,0,0,0-1.164.7c-.09.323.344.86.658,1.2.185.2.579.222.884.3A22.338,22.338,0,0,0,57.816,35.509m-35.74.547c1.881-2.288,3.69-4.415,5.389-6.627.282-.367.084-1.1.108-1.666-.55.11-1.32.027-1.614.362-2.016,2.3-3.959,4.66-5.848,7.062a1.623,1.623,0,0,0-.13,1.513C21.954,39.237,24,41.719,26.1,44.157c.24.28.906.195,1.374.278a4.484,4.484,0,0,0,.186-1.528c-.1-.416-.549-.752-.85-1.117-1.539-1.868-3.079-3.734-4.729-5.734m26.837,0c-1.852,2.253-3.663,4.374-5.351,6.589-.292.384-.057,1.169-.066,1.769.538-.153,1.273-.134,1.582-.488,1.976-2.263,3.885-4.586,5.743-6.947a1.679,1.679,0,0,0,.241-1.509c-2.01-2.576-4.1-5.094-6.233-7.566a1.37,1.37,0,0,0-1.353-.109c-.264.209-.287.932-.164,1.357s.555.752.855,1.118c1.563,1.907,3.127,3.814,4.744,5.786m-8.79-7.7c-.313-.265-.758-.835-.939-.761a2.643,2.643,0,0,0-1.35,1.073c-2.25,4.656-4.433,9.346-6.631,14.027-.089.19-.245.42-.2.587.111.417.22,1,.516,1.153s.865-.08,1.2-.31c.272-.185.391-.611.548-.944q3.2-6.8,6.393-13.615c.154-.329.262-.681.463-1.211" transform="translate(0 0)" fill="#eee"/>
      <path id="Path_249" data-name="Path 249" d="M21.388,60.23c-1.014,1.091-2.01,2.256-3.1,3.321-1.632,1.589-3.237,1.6-4.87.026q-3.077-2.969-6.046-6.049c-1.511-1.571-1.485-3.169,0-4.762.863-.926,1.849-1.747,2.642-2.727a1.986,1.986,0,0,0,.276-1.585c-.317-1.053-1.041-2-1.249-3.066-.391-1.994-1.526-2.308-3.359-2.261-5.22.132-5.671-.4-5.671-5.629,0-2.06-.019-4.119.006-6.178a3.167,3.167,0,0,1,3.408-3.494,33.973,33.973,0,0,1,3.483,0c1.033.077,1.584-.28,1.757-1.3a1.7,1.7,0,0,1,.419-1,1.9,1.9,0,0,1,1.3-.482c.262.048.636.756.57,1.091A9.051,9.051,0,0,1,10,28.965a2.37,2.37,0,0,1-1.656.89,43.991,43.991,0,0,1-4.59.055c-1.118-.022-1.66.425-1.65,1.582.022,2.693.007,5.386-.009,8.079-.006,1.061.493,1.533,1.552,1.517,1.531-.023,3.062.02,4.593,0a1.861,1.861,0,0,1,2.007,1.4c.726,1.976,1.532,3.928,2.421,5.836a1.959,1.959,0,0,1-.448,2.547c-1.1,1.061-2.15,2.181-3.254,3.242a1.29,1.29,0,0,0,.027,2.15q2.884,2.827,5.709,5.714a1.344,1.344,0,0,0,2.268-.029c1.014-1.075,2.112-2.07,3.127-3.144a2.025,2.025,0,0,1,2.684-.426c1.853.88,3.761,1.658,5.69,2.359a1.857,1.857,0,0,1,1.43,1.98c-.021,1.478.044,2.958,0,4.435-.038,1.184.4,1.777,1.641,1.762q3.96-.047,7.92-.014c1.128.008,1.642-.478,1.621-1.62-.029-1.531.025-3.063.007-4.594a1.864,1.864,0,0,1,1.462-1.958c1.975-.726,3.919-1.55,5.833-2.427a1.88,1.88,0,0,1,2.419.4c1.1,1.138,2.245,2.235,3.35,3.369a1.236,1.236,0,0,0,2.033,0q2.9-2.928,5.828-5.82a1.29,1.29,0,0,0,0-2.151c-1.105-1.059-2.152-2.179-3.261-3.235a1.952,1.952,0,0,1-.421-2.55c.885-1.909,1.552-3.923,2.489-5.8a2.758,2.758,0,0,1,1.792-1.346,33.963,33.963,0,0,1,4.744-.083c1.066.011,1.536-.481,1.532-1.537q-.017-4.039.015-8.079c.01-1.165-.565-1.586-1.674-1.558-1.477.037-2.957-.027-4.435,0A1.929,1.929,0,0,1,60.7,28.4c-.689-1.932-1.492-3.83-2.363-5.688a1.953,1.953,0,0,1,.4-2.554c1.067-1.023,2.062-2.121,3.144-3.127a1.4,1.4,0,0,0,.033-2.384c-1.9-1.832-3.763-3.7-5.6-5.6-.79-.812-1.464-.878-2.267-.029-1.052,1.112-2.172,2.159-3.241,3.254a1.891,1.891,0,0,1-2.417.427c-1.963-.9-4.023-1.587-5.95-2.55a2.761,2.761,0,0,1-1.289-1.838,30.609,30.609,0,0,1-.063-4.586c.025-1.132-.46-1.651-1.6-1.641-2.693.024-5.386.025-8.079.017-1.074,0-1.515.526-1.5,1.57.018,1.531-.029,3.063-.01,4.594a1.863,1.863,0,0,1-1.42,1.989c-1.976.726-3.92,1.547-5.834,2.424a1.877,1.877,0,0,1-2.425-.356c-1.064-1.1-2.186-2.146-3.237-3.258-.769-.813-1.443-.907-2.267-.061Q11.9,11.9,9.006,14.715c-.844.821-.763,1.5.054,2.267a37.761,37.761,0,0,1,3.215,3.273c.328.4.2,1.169.282,1.769-.562-.093-1.292.005-1.655-.314a47.683,47.683,0,0,1-3.7-3.684,2.975,2.975,0,0,1,.009-4.4q3.112-3.268,6.382-6.385a3.011,3.011,0,0,1,4.522.036c.973.89,1.825,1.92,2.841,2.752a2,2,0,0,0,1.588.257,28.718,28.718,0,0,0,2.764-1.171c2.474-1,2.478-.992,2.493-3.763.026-4.784.59-5.343,5.393-5.342,2.165,0,4.33-.02,6.495.006a3.2,3.2,0,0,1,3.5,3.421c.052,1.571-.428,3.49.307,4.613.691,1.055,2.746,1.131,4.051,1.894A2.182,2.182,0,0,0,50.858,9.3a15.2,15.2,0,0,1,2-2.022,3.025,3.025,0,0,1,4.527-.029q3.264,3.115,6.38,6.386a2.981,2.981,0,0,1,.014,4.405c-.879.982-1.821,1.914-2.791,2.807a1.276,1.276,0,0,0-.323,1.772c.671,1.371,1.127,2.847,1.808,4.212a1.954,1.954,0,0,0,1.318.944c1.307.128,2.637,0,3.955.049a3.108,3.108,0,0,1,3.216,3.2c.051,2.956.046,5.914,0,8.871a3.108,3.108,0,0,1-3.151,3.267c-1.67.094-3.718-.416-4.9.378-1.128.755-1.236,2.921-2.019,4.341a1.809,1.809,0,0,0,.494,2.68,21.5,21.5,0,0,1,2.456,2.467,2.951,2.951,0,0,1-.017,4.286q-3.161,3.331-6.493,6.5a2.988,2.988,0,0,1-4.407-.042c-1.254-1.114-2.334-2.94-3.737-3.222-1.328-.266-2.938,1.2-4.5,1.658a1.825,1.825,0,0,0-1.531,2.265,22.571,22.571,0,0,1-.018,3.482,3.047,3.047,0,0,1-3.068,3.011q-4.592.092-9.187,0a3.091,3.091,0,0,1-3.073-3.18c-.048-1.265-.053-2.536.01-3.8a1.372,1.372,0,0,0-1.1-1.6c-1.693-.579-3.33-1.325-5.339-2.144" transform="translate(0 0)" fill="#eee"/>
      <path id="Path_250" data-name="Path 250" d="M41.571,63.654A22.346,22.346,0,0,1,72.166,43.1c.874.347,2.482.5,1.889,1.96-.579,1.426-1.744.31-2.569,0C57.618,39.842,43.228,49.8,43.669,64.452a19.72,19.72,0,0,0,8.88,16.154c.3.213.734.328.91.61a10.573,10.573,0,0,1,.7,1.653c-.61.023-1.452.317-1.792.025a49.31,49.31,0,0,1-6.55-6.089,20.429,20.429,0,0,1-4.242-13.152" transform="translate(-28.4 -28.349)" fill="#eee"/>
      <path id="Path_251" data-name="Path 251" d="M118.623,74.053A22.338,22.338,0,0,1,90.561,95.606c-.305-.081-.7-.1-.884-.3-.314-.343-.748-.879-.658-1.2a1.407,1.407,0,0,1,1.164-.7c.935.075,1.842.445,2.777.59a20.232,20.232,0,0,0,16.666-35.2c-.314-.282-.752-.52-.891-.874a1.458,1.458,0,0,1,.062-1.251,1.26,1.26,0,0,1,1.219-.164,13.41,13.41,0,0,1,2.175,1.83,22.242,22.242,0,0,1,6.431,15.713" transform="translate(-60.807 -38.543)" fill="#eee"/>
      <path id="Path_252" data-name="Path 252" d="M64.869,95.924c1.65,2,3.191,3.866,4.729,5.734.3.366.756.7.851,1.117a4.485,4.485,0,0,1-.186,1.528c-.468-.084-1.134,0-1.374-.278-2.095-2.438-4.142-4.919-6.115-7.456a1.623,1.623,0,0,1,.13-1.513c1.889-2.4,3.832-4.766,5.848-7.062.294-.335,1.065-.252,1.615-.362-.024.564.174,1.3-.108,1.666-1.7,2.211-3.508,4.339-5.389,6.627" transform="translate(-42.793 -59.868)" fill="#eee"/>
      <path id="Path_253" data-name="Path 253" d="M142.152,95.7c-1.617-1.972-3.181-3.878-4.744-5.786-.3-.367-.734-.7-.855-1.118s-.1-1.148.164-1.357a1.371,1.371,0,0,1,1.353.109c2.137,2.472,4.223,4.99,6.233,7.566a1.68,1.68,0,0,1-.241,1.509c-1.859,2.361-3.767,4.684-5.743,6.947-.308.353-1.043.335-1.582.488.009-.6-.227-1.385.066-1.769,1.687-2.216,3.5-4.337,5.351-6.589" transform="translate(-93.24 -59.645)" fill="#eee"/>
      <path id="Path_254" data-name="Path 254" d="M106.951,87.843c-.2.53-.309.881-.463,1.211q-3.19,6.811-6.393,13.615c-.157.333-.277.759-.548.944-.336.23-.917.455-1.2.31s-.405-.737-.516-1.153c-.044-.167.112-.4.2-.587,2.2-4.681,4.381-9.371,6.631-14.027a2.643,2.643,0,0,1,1.35-1.073c.18-.074.626.5.939.761" transform="translate(-66.829 -59.487)" fill="#eee"/>
    </g>
  </g>
</svg>
