<svg xmlns="http://www.w3.org/2000/svg" xmlns:xlink="http://www.w3.org/1999/xlink" width="95.5" height="53.719" viewBox="0 0 95.5 53.719">
  <defs>
    <clipPath id="clip-path">
      <path id="path3446" d="M14.4-360.185c0,13.317,20.524,24.114,45.84,24.114h0c25.316,0,45.84-10.8,45.84-24.114h0c0-13.317-20.524-24.114-45.84-24.114h0c-25.316,0-45.84,10.8-45.84,24.114" transform="translate(-14.4 384.299)"/>
    </clipPath>
    <radialGradient id="radial-gradient" cx="0.628" cy="0.8" r="1.248" gradientUnits="objectBoundingBox">
      <stop offset="0" stop-color="#aeb2d5"/>
      <stop offset="0.3" stop-color="#aeb2d5"/>
      <stop offset="0.75" stop-color="#484c89"/>
      <stop offset="1" stop-color="#484c89"/>
    </radialGradient>
    <clipPath id="clip-path-2">
      <path id="path3470" d="M0-405H95.5v53.719H0Z" transform="translate(0 405)"/>
    </clipPath>
  </defs>
  <g id="icon-php" transform="translate(0 405)">
    <g id="g3440" transform="translate(1.91 -402.254)">
      <g id="g3442" transform="translate(0 0)" clip-path="url(#clip-path)">
        <g id="g3448">
          <g id="g3450">
            <path id="path3462" d="M14.4-360.185c0,13.317,20.524,24.114,45.84,24.114h0c25.316,0,45.84-10.8,45.84-24.114h0c0-13.317-20.524-24.114-45.84-24.114h0c-25.316,0-45.84,10.8-45.84,24.114" transform="translate(-14.4 384.299)" fill="url(#radial-gradient)"/>
          </g>
        </g>
      </g>
    </g>
    <g id="g3464" transform="translate(0 -405)">
      <g id="g3466" clip-path="url(#clip-path-2)">
        <g id="g3472" transform="translate(3.701 4.536)">
          <path id="path3474" d="M-288.051-291.956c24.327,0,44.049-9.995,44.049-22.323S-263.723-336.6-288.051-336.6s-44.049,9.995-44.049,22.323,19.722,22.323,44.049,22.323" transform="translate(332.1 336.603)" fill="#777bb3"/>
        </g>
      </g>
    </g>
    <g id="g3476" transform="translate(0 -405)">
      <g id="g3478" clip-path="url(#clip-path-2)">
        <g id="g3484" transform="translate(15.862 15.7)">
          <path id="path3486" d="M-71.625-91.073a7.311,7.311,0,0,0,4.439-1.1,5.932,5.932,0,0,0,1.919-3.706c.316-1.626.2-2.761-.357-3.374s-1.786-.943-3.63-.943h-3.2l-1.772,9.119ZM-82.08-79.84a.5.5,0,0,1-.384-.181.5.5,0,0,1-.1-.411l4.7-24.165a.5.5,0,0,1,.488-.4h10.123c3.181,0,5.549.864,7.038,2.568s1.958,4.107,1.373,7.116a11.358,11.358,0,0,1-1.217,3.384,11.33,11.33,0,0,1-2.24,2.807,9.827,9.827,0,0,1-3.687,2.209,16.7,16.7,0,0,1-5.065.651h-4.1l-1.171,6.022a.5.5,0,0,1-.488.4Z" transform="translate(82.578 105)"/>
        </g>
        <g id="g3488" transform="translate(15.365 15.203)">
          <path id="path3490" d="M-72.155-37.947h2.787c2.225,0,3,.488,3.261.779.436.483.518,1.5.238,2.946A5.468,5.468,0,0,1-67.6-30.816a6.857,6.857,0,0,1-4.135.993h-2Zm4.78-5.8H-77.5a1,1,0,0,0-.976.8l-4.7,24.165a1,1,0,0,0,.209.823,1,1,0,0,0,.768.362h5.264a1,1,0,0,0,.977-.8l1.092-5.62h3.689a17.185,17.185,0,0,0,5.219-.676,10.324,10.324,0,0,0,3.872-2.319,11.832,11.832,0,0,0,2.334-2.928,11.855,11.855,0,0,0,1.271-3.532c.616-3.167.116-5.7-1.487-7.538-1.587-1.817-4.081-2.738-7.412-2.738m-7.566,14.922h3.2A7.732,7.732,0,0,0-67-30.028a6.37,6.37,0,0,0,2.1-4.005q.523-2.694-.476-3.8t-4-1.108h-3.607l-1.966,10.114m7.566-13.927q4.568,0,6.663,2.4t1.26,6.694a10.82,10.82,0,0,1-1.163,3.236,10.792,10.792,0,0,1-2.142,2.683,9.3,9.3,0,0,1-3.5,2.1,16.137,16.137,0,0,1-4.911.627h-4.509L-76.93-18.59h-5.264l4.7-24.165h10.123" transform="translate(83.189 43.75)" fill="#fff"/>
        </g>
        <g id="g3492" transform="translate(38.272 9.275)">
          <path id="path3494" d="M-87.549-164.528a.5.5,0,0,1-.384-.181.5.5,0,0,1-.1-.411l2.078-10.692c.2-1.017.149-1.747-.137-2.055-.175-.189-.7-.5-2.256-.5h-3.764l-2.612,13.442a.5.5,0,0,1-.488.4h-5.223a.5.5,0,0,1-.384-.181.5.5,0,0,1-.1-.411l4.7-24.165a.5.5,0,0,1,.488-.4h5.223a.5.5,0,0,1,.384.181.5.5,0,0,1,.1.411l-1.133,5.832h4.049c3.085,0,5.176.544,6.395,1.663,1.242,1.141,1.629,2.966,1.152,5.425l-2.185,11.245a.5.5,0,0,1-.488.4Z" transform="translate(100.938 189.688)"/>
        </g>
        <g id="g3496" transform="translate(37.774 8.778)">
          <path id="path3498" d="M-71.371,0h-5.223a1,1,0,0,0-.977.8l-4.7,24.165a1,1,0,0,0,.209.823,1,1,0,0,0,.768.362h5.223a1,1,0,0,0,.977-.8l2.534-13.039H-69.2c1.552,0,1.878.332,1.891.346.094.1.218.571.014,1.622L-69.376,24.97a1,1,0,0,0,.209.823,1,1,0,0,0,.768.362h5.306a1,1,0,0,0,.977-.8L-59.933,14.1c.513-2.64.074-4.62-1.3-5.886-1.314-1.207-3.516-1.794-6.731-1.794h-3.446l1.019-5.24A1,1,0,0,0-70.6.362,1,1,0,0,0-71.371,0m0,.995L-72.62,7.419h4.653q4.391,0,6.058,1.532t1,4.964L-63.094,25.16H-68.4l2.078-10.692a2.9,2.9,0,0,0-.261-2.488,3.67,3.67,0,0,0-2.62-.664h-4.174l-2.69,13.844h-5.223l4.7-24.165h5.223" transform="translate(82.285 0)" fill="#fff"/>
        </g>
        <g id="g3500" transform="translate(56.95 15.7)">
          <path id="path3502" d="M-71.625-91.073a7.311,7.311,0,0,0,4.439-1.1,5.932,5.932,0,0,0,1.919-3.706c.316-1.626.2-2.761-.357-3.374s-1.786-.943-3.63-.943h-3.2l-1.772,9.119ZM-82.08-79.84a.5.5,0,0,1-.384-.181.5.5,0,0,1-.1-.411l4.7-24.165a.5.5,0,0,1,.488-.4h10.123c3.182,0,5.549.864,7.038,2.568s1.958,4.107,1.373,7.116a11.368,11.368,0,0,1-1.217,3.384,11.33,11.33,0,0,1-2.24,2.807,9.827,9.827,0,0,1-3.687,2.209,16.7,16.7,0,0,1-5.065.651h-4.1l-1.17,6.022a.5.5,0,0,1-.488.4Z" transform="translate(82.578 105)"/>
        </g>
        <g id="g3504" transform="translate(56.453 15.203)">
          <path id="path3506" d="M-72.154-37.947h2.787c2.225,0,3,.488,3.261.779.436.483.518,1.5.238,2.946A5.469,5.469,0,0,1-67.6-30.816a6.857,6.857,0,0,1-4.135.993h-2Zm4.78-5.8H-77.5a1,1,0,0,0-.976.8l-4.7,24.165a1,1,0,0,0,.209.823,1,1,0,0,0,.768.362h5.264a1,1,0,0,0,.977-.8l1.092-5.62h3.689a17.185,17.185,0,0,0,5.219-.676,10.324,10.324,0,0,0,3.872-2.319,11.826,11.826,0,0,0,2.334-2.927,11.855,11.855,0,0,0,1.271-3.532c.616-3.168.116-5.7-1.487-7.538-1.587-1.817-4.081-2.738-7.412-2.738M-74.94-28.828h3.2A7.732,7.732,0,0,0-67-30.028a6.369,6.369,0,0,0,2.1-4.005q.523-2.694-.476-3.8t-4-1.108h-3.607L-74.94-28.828m7.566-13.927q4.568,0,6.663,2.4t1.26,6.694a10.82,10.82,0,0,1-1.163,3.236,10.792,10.792,0,0,1-2.142,2.683,9.3,9.3,0,0,1-3.5,2.1,16.137,16.137,0,0,1-4.911.627h-4.509l-1.248,6.425h-5.264l4.7-24.165h10.123" transform="translate(83.188 43.75)" fill="#fff"/>
        </g>
      </g>
    </g>
  </g>
</svg>
