<svg xmlns="http://www.w3.org/2000/svg" xmlns:xlink="http://www.w3.org/1999/xlink" width="35.001" height="27.616" viewBox="0 0 35.001 27.616">
  <defs>
    <clipPath id="clip-path">
      <rect id="Rectangle_24" data-name="Rectangle 24" width="35.001" height="27.616" fill="none"/>
    </clipPath>
  </defs>
  <g id="icon-contact" clip-path="url(#clip-path)">
    <path id="Path_148" data-name="Path 148" d="M6.177,22.522a1.164,1.164,0,0,1-1.164-1.164V17.384H4.834A4.834,4.834,0,0,1,0,12.568V4.816A4.834,4.834,0,0,1,4.816,0H20a4.834,4.834,0,0,1,4.816,4.816v7.752A4.834,4.834,0,0,1,20,17.384H11.387L7.036,22.146a1.164,1.164,0,0,1-.859.376m0-7.466A1.164,1.164,0,0,1,7.34,16.22v2.148l2.685-2.918a1.164,1.164,0,0,1,.859-.376H20a2.489,2.489,0,0,0,2.489-2.489V4.816A2.489,2.489,0,0,0,20,2.327H4.816A2.489,2.489,0,0,0,2.327,4.816v7.752a2.489,2.489,0,0,0,2.489,2.489H6.177Z" fill="#eee"/>
    <path id="Path_149" data-name="Path 149" d="M77.59,51a1.164,1.164,0,0,1-.859-.376L72.38,45.884H63.768A4.834,4.834,0,0,1,59.4,43.109l2.113-.985a2.506,2.506,0,0,0,2.256,1.432h9.113a1.164,1.164,0,0,1,.859.376l2.685,2.918V44.7a1.164,1.164,0,0,1,.34-.824,1.182,1.182,0,0,1,.824-.34H78.95a2.489,2.489,0,0,0,2.489-2.489V33.316a2.489,2.489,0,0,0-2.489-2.489H74.976V28.5H78.95a4.834,4.834,0,0,1,4.816,4.816v7.752a4.834,4.834,0,0,1-4.816,4.816h-.2v3.975a1.164,1.164,0,0,1-1.164,1.164" transform="translate(-48.765 -23.398)" fill="#eee"/>
  </g>
</svg>
