<svg id="icon-jquery" xmlns="http://www.w3.org/2000/svg" width="123.495" height="30.249" viewBox="0 0 123.495 30.249">
  <path id="Path_280" data-name="Path 280" d="M221.339,46.167h0l-.791,2.8.79-2.8Z" transform="translate(-168.53 -35.277)" fill="#131b28"/>
  <path id="Path_281" data-name="Path 281" d="M238.317,71.945l-.871-.005Z" transform="translate(-181.442 -54.972)" fill="#131b28"/>
  <path id="Path_282" data-name="Path 282" d="M223.282,89.7h0l-5.22.019,5.219-.019Z" transform="translate(-166.631 -68.546)" fill="#131b28"/>
  <path id="Path_283" data-name="Path 283" d="M242.006,71.967l-.872-.005Z" transform="translate(-184.261 -54.989)" fill="#131b28"/>
  <path id="Path_284" data-name="Path 284" d="M242.13,76.961l.909-3.468-.909,3.468h0Z" transform="translate(-185.021 -56.159)" fill="#131b28"/>
  <path id="Path_285" data-name="Path 285" d="M318.122,20.49l-1.694,7.963,1.694-7.963Z" transform="translate(-241.796 -15.657)" fill="#131b28"/>
  <path id="Path_286" data-name="Path 286" d="M300.984,20.488,299.7,26.437l1.286-5.949Z" transform="translate(-229.012 -15.656)" fill="#131b28"/>
  <path id="Path_287" data-name="Path 287" d="M269.611,18.971H265.99a.476.476,0,0,0-.443.358l-1.286,5.949-1.286,5.949a.475.475,0,0,1-.443.357h-2.564c-2.536,0-2.243-1.754-1.723-4.157l.016-.073.057-.3c0-.02.007-.039.011-.057l.116-.617.124-.661c.038-.2.1-.491.132-.674l.584-2.856.585-2.856a.288.288,0,0,0-.293-.359H255.86a.473.473,0,0,0-.441.358l-.8,3.792-.8,3.792a.025.025,0,0,0,0,.006l-.074.352c-.921,4.2-.677,8.212,4.327,8.337l.145,0h7.855a.474.474,0,0,0,.442-.358l1.694-7.962,1.694-7.963a.285.285,0,0,0-.29-.358Z" transform="translate(-193.575 -14.497)" fill="#fff"/>
  <path id="Path_288" data-name="Path 288" d="M383.448,72.621a.287.287,0,0,1,.293.358l-.352,1.719" transform="translate(-292.963 -55.493)" fill="#131b28"/>
  <path id="Path_289" data-name="Path 289" d="M381.9,83.146l.352-1.72-.352,1.721h0Z" transform="translate(-291.824 -62.221)" fill="#131b28"/>
  <path id="Path_290" data-name="Path 290" d="M358.406,90.251h0c-1.066.009-4.269.033-6.676.033,2.93,0,6.674-.032,6.674-.032Z" transform="translate(-268.772 -68.964)" fill="#131b28"/>
  <path id="Path_291" data-name="Path 291" d="M342.178,61.549c0-.188.211-.512.413-.512l-.452-.007C341.934,63.079,342.178,61.549,342.178,61.549Z" transform="translate(-261.379 -46.635)" fill="#131b28"/>
  <path id="Path_292" data-name="Path 292" d="M352.9,90.387h0Z" transform="translate(-269.615 -69.068)" fill="#131b28"/>
  <path id="Path_293" data-name="Path 293" d="M383.262,72.621a.287.287,0,0,1,.293.358L383.2,74.7l-.057.28" transform="translate(-292.777 -55.493)" fill="#131b28"/>
  <path id="Path_294" data-name="Path 294" d="M360.352,90.37h0Z" transform="translate(-275.349 -69.055)" fill="#131b28"/>
  <path id="Path_295" data-name="Path 295" d="M356.463,90.382h0Z" transform="translate(-272.348 -69.065)" fill="#131b28"/>
  <path id="Path_296" data-name="Path 296" d="M355.2,90.385h0Z" transform="translate(-271.361 -69.067)" fill="#131b28"/>
  <path id="Path_297" data-name="Path 297" d="M354.067,90.387h0Z" transform="translate(-270.5 -69.068)" fill="#131b28"/>
  <path id="Path_298" data-name="Path 298" d="M355.7,90.382h0Z" transform="translate(-271.637 -69.065)" fill="#131b28"/>
  <path id="Path_299" data-name="Path 299" d="M357.509,90.37l-.874,0Z" transform="translate(-272.519 -69.055)" fill="#131b28"/>
  <path id="Path_300" data-name="Path 300" d="M365.028,90.25h0c-.781.006-2.71.021-4.634.028C362.318,90.271,364.247,90.256,365.028,90.25Z" transform="translate(-275.392 -68.964)" fill="#131b28"/>
  <path id="Path_301" data-name="Path 301" d="M381.9,84.056l.295-1.44-.295,1.441h0Z" transform="translate(-291.824 -63.13)" fill="#131b28"/>
  <path id="Path_302" data-name="Path 302" d="M354.5,90.387h0Z" transform="translate(-270.742 -69.068)" fill="#131b28"/>
  <path id="Path_303" data-name="Path 303" d="M351.992,90.389h0Z" transform="translate(-268.774 -69.07)" fill="#131b28"/>
  <path id="Path_304" data-name="Path 304" d="M353.33,90.387h0Z" transform="translate(-269.838 -69.068)" fill="#131b28"/>
  <path id="Path_305" data-name="Path 305" d="M127.1,55.337l.563-2.494-.643,2.851-.617,2.9.541-2.546c.042-.2.113-.519.157-.715Z" transform="translate(-96.588 -40.379)" fill="#131b28"/>
  <path id="Path_306" data-name="Path 306" d="M141.1,18.793h-3.978a.482.482,0,0,0-.447.356l-.377,1.665-.377,1.665a.28.28,0,0,0,.285.356h4.008a.477.477,0,0,0,.444-.357l.365-1.665.365-1.664h0a.282.282,0,0,0-.288-.357Z" transform="translate(-103.859 -14.36)" fill="#fff"/>
  <path id="Path_307" data-name="Path 307" d="M150.46,42.27h0l-1.167,5.4Z" transform="translate(-114.081 -32.3)" fill="#131b28"/>
  <path id="Path_308" data-name="Path 308" d="M105.245,118.088s2.005.026,3.28.026c-.968,0-2.567-.018-3.281-.026h0Z" transform="translate(-80.42 -90.236)" fill="#131b28"/>
  <path id="Path_309" data-name="Path 309" d="M132.305,42.269l-.563,2.494Z" transform="translate(-100.67 -32.299)" fill="#131b28"/>
  <path id="Path_310" data-name="Path 310" d="M115.574,40.756h-4.009a.481.481,0,0,0-.446.357l-.563,2.494-.563,2.494c-.044.2-.115.518-.157.715l-.541,2.546-.541,2.546c-.042.2-.128.514-.193.7,0,0-.749,2.228-2.008,2.2l-.157,0-1.089-.02h0a.477.477,0,0,0-.449.349l-.416,1.748-.415,1.747a.28.28,0,0,0,.279.36c.714.009,2.313.026,3.281.026,3.145,0,4.8-1.742,5.866-6.757L114.7,46.51l1.167-5.4a.283.283,0,0,0-.289-.357Z" transform="translate(-79.483 -31.143)" fill="#fff"/>
  <path id="Path_311" data-name="Path 311" d="M393.508,42.6a.284.284,0,0,1-.289-.358l3.016-14.126" transform="translate(-300.468 -21.485)" fill="#131b28"/>
  <path id="Path_312" data-name="Path 312" d="M412.24,68.471l1.22-6.029Z" transform="translate(-315.009 -47.714)" fill="#131b28"/>
  <path id="Path_313" data-name="Path 313" d="M393.261,65.3a1.559,1.559,0,0,1,.033-.537l1.431-6.705-1.508,7.063a.284.284,0,0,0,.289.358h.366c-.2,0-.587-.081-.611-.179Z" transform="translate(-300.467 -44.368)" fill="#131b28"/>
  <path id="Path_314" data-name="Path 314" d="M409.4,87.121a1.9,1.9,0,0,1-.565.081h.366a.467.467,0,0,0,.438-.359l.073-.358C409.671,86.682,409.509,87.077,409.4,87.121Z" transform="translate(-312.406 -66.087)" fill="#131b28"/>
  <path id="Path_315" data-name="Path 315" d="M414.83,66.6l.538-2.661a.028.028,0,0,1,0,.005L414.83,66.6Z" transform="translate(-316.988 -48.86)" fill="#131b28"/>
  <path id="Path_316" data-name="Path 316" d="M464.9,32.128l.166.686a.278.278,0,0,1-.282.356" transform="translate(-355.164 -24.55)" fill="#131b28"/>
  <path id="Path_317" data-name="Path 317" d="M412.55,77.88l.537-2.656Z" transform="translate(-315.246 -57.482)" fill="#131b28"/>
  <path id="Path_318" data-name="Path 318" d="M464.58,29.147l.164.7Z" transform="translate(-355.004 -22.272)" fill="#131b28"/>
  <path id="Path_319" data-name="Path 319" d="M417.11,52.911c.04-.2.106-.516.148-.711l.575-2.694-.651,3.051-.072.354Z" transform="translate(-318.731 -37.829)" fill="#131b28"/>
  <path id="Path_320" data-name="Path 320" d="M401.2,27.135c-.04.19-.091.43-.125.589l-1.431,6.705,1.508-7.063.049-.231Z" transform="translate(-305.382 -20.735)" fill="#131b28"/>
  <path id="Path_321" data-name="Path 321" d="M410.505,22.9l-.166-.686-.164-.7-.083-.356c-.326-1.265-1.281-2-3.357-2l-3.231,0-2.976,0h-3.348a.472.472,0,0,0-.441.358h0l-.148.7-.175.826-.049.231-1.508,7.063-1.431,6.705a1.559,1.559,0,0,0-.033.537c.024.1.41.179.611.179h3.021a1.9,1.9,0,0,0,.565-.081c.11-.044.272-.439.312-.636l.537-2.656.537-2.656v-.005l.072-.354.651-3.051.575-2.695a.474.474,0,0,1,.441-.356l9.505,0a.278.278,0,0,0,.282-.356Z" transform="translate(-300.6 -14.633)" fill="#fff"/>
  <path id="Path_322" data-name="Path 322" d="M463.083,8.7l-.732,0h-3.042a.778.778,0,0,0-.572.3l-6.727,9.856c-.114.166-.243.142-.288-.054l-.495-2.171a.481.481,0,0,0-.447-.356h-4.325a.262.262,0,0,0-.266.351l1.938,6.789a1.6,1.6,0,0,1,.01.706l-.845,3.286a.271.271,0,0,0,.275.355h4.274a.5.5,0,0,0,.456-.355l.845-3.286a2.184,2.184,0,0,1,.311-.647l10.922-14.5c.121-.161.056-.291-.145-.29l-1.146.007Z" transform="translate(-340.94 -6.642)" fill="#fff"/>
  <path id="Path_323" data-name="Path 323" d="M334.386,24.269v0a.441.441,0,0,1-.428.378h-5.483a.236.236,0,0,1-.258-.288.049.049,0,0,1,.005-.013l0,0c0-.006,0-.012,0-.018l.025-.093a3.436,3.436,0,0,1,3.6-2.306c2.257,0,2.7,1.1,2.544,2.342Zm-1.609-6.329c-7.038,0-8.706,4.272-9.642,8.584-.936,4.395-.855,8.5,6.428,8.5h1.154l.874,0h.015c1.924-.007,3.853-.022,4.634-.028a.474.474,0,0,0,.436-.359l.295-1.441.057-.28.352-1.719a.287.287,0,0,0-.292-.358h-6.548c-2.6,0-3.378-.692-3.093-2.727h10.473a.432.432,0,0,0,.381-.27.383.383,0,0,0,.025-.092h0c1.554-5.862,1.108-9.81-5.549-9.81Z" transform="translate(-246.604 -13.709)" fill="#fff"/>
  <path id="Path_324" data-name="Path 324" d="M176.162,10.538l-.1.351s0,0,0,0l-.79,2.8-.79,2.8a.512.512,0,0,1-.465.352h-4.183c-3.173,0-3.946-2.482-3.173-6.142.772-3.744,2.287-6.071,5.41-6.307,4.268-.322,5.121,2.68,4.091,6.145Zm2.869,6.089a46.91,46.91,0,0,0,2.42-7.555c.611-3.7-1.243-9.073-8.4-9.073-7.12,0-10.212,5.127-11.391,10.7-1.18,5.614.366,10.537,7.445,10.5l5.585-.021,5.22-.019a.5.5,0,0,0,.458-.355l.909-3.468a.271.271,0,0,0-.273-.356l-.872-.005-.871-.005a.223.223,0,0,1-.248-.259.336.336,0,0,1,.021-.082Z" transform="translate(-123.254)" fill="#fff"/>
  <path id="Path_325" data-name="Path 325" d="M384.364,56.132a.24.24,0,1,1-.24-.24A.24.24,0,0,1,384.364,56.132Z" transform="translate(-293.341 -42.71)" fill="#131b28"/>
  <path id="Path_326" data-name="Path 326" d="M1.41,24.2c-1.966,2.826-1.721,6.5-.219,9.5.036.072.073.143.11.214.024.045.046.091.07.135.014.026.029.052.044.078.026.048.052.093.078.14q.07.124.143.246c.027.045.054.09.082.135.054.088.11.174.166.26.024.037.047.074.071.109.078.117.158.233.241.348l.007.009.041.055c.071.1.145.2.22.292l.083.105q.1.125.2.249l.077.093c.092.109.187.217.283.323l.006.006.011.012c.094.1.19.2.287.3l.092.093q.113.114.229.225c.031.03.062.06.094.089q.155.146.314.286l0,0,.055.047c.094.081.189.162.286.241l.118.094q.118.094.238.186l.127.1q.133.1.267.192l.1.069.027.019c.085.059.172.115.259.172l.112.075c.134.085.269.168.406.249l.112.063c.1.058.2.115.3.171.056.03.113.058.169.087.073.038.145.077.218.113l.05.024.089.043q.171.082.346.16l.073.033q.2.087.4.168l.1.039c.126.048.253.1.381.141l.048.017c.14.049.282.094.424.139l.1.031a4.127,4.127,0,0,0,.438.124C18.907,42.043,21.668,34.6,21.668,34.6c-2.319,3.022-6.437,3.819-10.337,2.931-.148-.033-.291-.079-.435-.122l-.109-.033q-.211-.065-.419-.136l-.058-.021c-.124-.044-.247-.09-.37-.137l-.1-.041q-.2-.079-.4-.166l-.08-.035c-.113-.051-.225-.1-.337-.157l-.1-.047c-.088-.043-.174-.088-.26-.133-.058-.03-.117-.059-.174-.091-.105-.056-.209-.115-.312-.175l-.105-.059c-.137-.081-.272-.164-.406-.249-.037-.024-.073-.049-.11-.073-.1-.063-.194-.127-.289-.192L7.174,35.6q-.138-.1-.273-.2l-.121-.092c-.083-.063-.165-.127-.247-.193l-.11-.088c-.1-.085-.206-.171-.307-.259l-.034-.028c-.109-.1-.217-.195-.323-.294l-.091-.088c-.079-.075-.156-.15-.232-.227l-.091-.091q-.145-.149-.285-.3l-.014-.015c-.1-.108-.195-.218-.289-.329l-.076-.09c-.07-.085-.14-.17-.208-.257l-.076-.1c-.082-.106-.162-.212-.24-.32C1.992,29.678,1.214,25.6,2.944,22.257" transform="translate(0 -17.008)" fill="#0868ac"/>
  <path id="Path_327" data-name="Path 327" d="M28.393,15.1a6.835,6.835,0,0,0-.236,6.948,9.051,9.051,0,0,0,.629,1.05,4.994,4.994,0,0,0,.732.914c.1.113.21.223.319.331l.084.083c.106.1.214.2.326.3l.013.012,0,0c.124.108.251.212.381.315l.086.067c.13.1.262.2.4.291l.012.009c.06.041.121.08.182.12.029.019.057.039.086.057q.146.093.3.181l.042.024c.086.05.173.1.261.146.031.017.062.032.093.048.06.032.121.064.183.094l.028.013c.125.062.252.121.381.177l.084.035c.1.044.207.086.312.127l.134.049c.1.035.19.067.286.1l.13.041a3.126,3.126,0,0,0,.414.12c7.341,1.216,9.035-4.436,9.035-4.436a6.973,6.973,0,0,1-7.643,2.431c-.14-.037-.278-.077-.416-.12l-.125-.04q-.146-.048-.291-.1l-.131-.049q-.158-.06-.313-.126l-.084-.036q-.194-.085-.383-.178c-.065-.032-.128-.065-.192-.1L33.4,23.95c-.082-.044-.163-.09-.243-.137l-.058-.033q-.149-.087-.294-.18c-.03-.019-.059-.04-.089-.059-.064-.041-.128-.083-.191-.126-.135-.093-.267-.191-.4-.29l-.089-.07a8.851,8.851,0,0,1-3-4.273,6.63,6.63,0,0,1,.517-5.319" transform="translate(-20.88 -10.288)" fill="#0868ac"/>
  <path id="Path_328" data-name="Path 328" d="M51.3,10.073a4.278,4.278,0,0,0-.339,4.128A5.812,5.812,0,0,0,54.3,17.319c.06.022.121.043.182.063l.08.025a2.3,2.3,0,0,0,.261.075c4.053.783,5.153-2.08,5.445-2.5-.963,1.387-2.581,1.719-4.567,1.237-.157-.038-.329-.095-.48-.148a5.812,5.812,0,0,1-1.571-.847c-1.777-1.348-2.881-3.92-1.721-6.015" transform="translate(-38.656 -7.036)" fill="#0868ac"/>
  <path id="Path_329" data-name="Path 329" d="M232.309,112.6l-1.168,2.661h-1.29l.106-2.418-.95,2.418h-1.249l-.033-2.661.138-.657h.884l-.17,2.628.982-2.628h1.233l-.089,2.661.974-2.661h.77Z" transform="translate(-174.014 -85.541)" fill="#fff"/>
  <path id="Path_330" data-name="Path 330" d="M249.3,113.286c.114-.519.081-.617-.187-.617h-.406l-.26,1.217-.4,1.273h-.754l.616-2.888.09-.422h.69l.089.195a1.81,1.81,0,0,1,.787-.235c.828,0,.763.624.584,1.476H249.3Z" transform="translate(-188.967 -85.438)" fill="#fff"/>
  <path id="Path_331" data-name="Path 331" d="M262.238,106.931c-.332,0-.543-.1-.462-.5a.592.592,0,0,1,.673-.5c.325,0,.544.1.455.5a.586.586,0,0,1-.665.5Zm-.357,3.732h-.747l.146-1.3.26-1.2-.519-.114.146-.705h1.419l-.705,3.318Z" transform="translate(-199.457 -80.941)" fill="#fff"/>
  <path id="Path_332" data-name="Path 332" d="M270.873,109.91l-.933.114-.268,1.266c-.073.349-.073.446.236.446h.624l-.13.665a4.368,4.368,0,0,1-.811.17c-.957,0-.949-.527-.779-1.315l.26-1.241-.519-.113.154-.706h.544l.308-.836h.738l-.179.836h.909l-.154.713Z" transform="translate(-205.212 -82.802)" fill="#fff"/>
  <path id="Path_333" data-name="Path 333" d="M280.717,112.535a.7.7,0,0,0-.754.633l1.249-.105C281.268,112.787,281.212,112.535,280.717,112.535Zm-.876,1.233c-.057.406.1.544.616.544h1.306l-.13.617a6.322,6.322,0,0,1-1.371.219c-1.452,0-1.469-.819-1.282-1.7.187-.86.519-1.711,1.922-1.711,1.355,0,1.42.819,1.087,2.027h-2.15Z" transform="translate(-213.117 -85.386)" fill="#fff"/>
  <path id="Path_334" data-name="Path 334" d="M302.213,111.134h-.746l.146-1.3.527-2.466-.52-.121.154-.706h1.42l-.982,4.592Z" transform="translate(-230.363 -81.413)" fill="#fff"/>
  <path id="Path_335" data-name="Path 335" d="M310.166,112.535a.705.705,0,0,0-.755.633l1.25-.105C310.717,112.787,310.661,112.535,310.166,112.535Zm-.876,1.233c-.057.406.1.544.616.544h1.306l-.13.617a6.326,6.326,0,0,1-1.371.219c-1.452,0-1.468-.819-1.282-1.7.187-.86.519-1.711,1.923-1.711,1.355,0,1.42.819,1.087,2.027h-2.15Z" transform="translate(-235.62 -85.386)" fill="#fff"/>
  <path id="Path_336" data-name="Path 336" d="M325.9,112.625s-.949.008-1.209.008c-.552,0-.609.17-.649.348l-.033.162,1.753.13a4.818,4.818,0,0,1-.065.876,1.513,1.513,0,0,1-1.63,1.062,7.249,7.249,0,0,1-1.274-.186l.138-.641h1.209c.536,0,.609-.146.641-.292l.04-.211-1.72-.13a2.773,2.773,0,0,1,.024-.86,1.513,1.513,0,0,1,1.647-1.087,7.554,7.554,0,0,1,1.274.178l-.146.641Z" transform="translate(-246.661 -85.435)" fill="#fff"/>
  <path id="Path_337" data-name="Path 337" d="M339.733,112.625s-.949.008-1.209.008c-.552,0-.608.17-.649.348l-.033.162,1.753.13a4.82,4.82,0,0,1-.065.876,1.513,1.513,0,0,1-1.631,1.062,7.254,7.254,0,0,1-1.274-.186l.138-.641h1.209c.535,0,.608-.146.641-.292l.04-.211-1.72-.13a2.772,2.772,0,0,1,.024-.86,1.513,1.513,0,0,1,1.647-1.087,7.553,7.553,0,0,1,1.273.178l-.146.641Z" transform="translate(-257.23 -85.435)" fill="#fff"/>
  <path id="Path_338" data-name="Path 338" d="M351.089,123.519h-.649l.024-.487c-.236-.016-.357-.186-.3-.47a.588.588,0,0,1,.673-.5c.324,0,.543.1.454.5l-.2.958Z" transform="translate(-267.564 -93.27)" fill="#fff"/>
  <path id="Path_339" data-name="Path 339" d="M366.867,108.639c-.487,0-.657.292-.771.827s-.081.852.405.852h.673l.373-1.679Zm1.112,2.068-.09.43-.681-.008-.1-.211a3.294,3.294,0,0,1-1.006.259c-1.039,0-1.087-.852-.9-1.711.187-.876.592-1.7,1.623-1.7a3.135,3.135,0,0,1,.876.187l.414-1.4h.747l-.884,4.161Z" transform="translate(-279.002 -81.416)" fill="#fff"/>
  <path id="Path_340" data-name="Path 340" d="M382.527,112.626c-.633,0-.836.356-.949.876s-.056.884.568.884c.649,0,.844-.349.957-.884.114-.5.081-.876-.576-.876Zm-.551,2.58c-1.339,0-1.444-.836-1.266-1.7a1.879,1.879,0,0,1,2-1.7c1.33,0,1.452.827,1.265,1.7A1.873,1.873,0,0,1,381.975,115.206Z" transform="translate(-290.865 -85.436)" fill="#fff"/>
  <path id="Path_341" data-name="Path 341" d="M406.924,115.128l.146-1.282.073-.365c.106-.487.17-.844-.341-.844h-.4a3.149,3.149,0,0,1-.1.836l-.349,1.655H405.2l.146-1.282.073-.365c.106-.487.17-.844-.34-.844h-.325l-.536,2.49h-.868l.706-3.318h.681l.105.2a2.213,2.213,0,0,1,.836-.244.6.6,0,0,1,.568.292,2.471,2.471,0,0,1,.958-.292c1.038,0,1.006.844.819,1.7l-.349,1.655h-.755Z" transform="translate(-308.219 -85.408)" fill="#fff"/>
  <path id="Path_342" data-name="Path 342" d="M427.006,112.626c-.633,0-.836.356-.949.876s-.056.884.568.884c.649,0,.844-.349.958-.884C427.7,113,427.663,112.626,427.006,112.626Zm-.552,2.58c-1.339,0-1.444-.836-1.266-1.7a1.878,1.878,0,0,1,2-1.7c1.331,0,1.452.827,1.265,1.7A1.873,1.873,0,0,1,426.455,115.206Z" transform="translate(-324.853 -85.436)" fill="#fff"/>
  <path id="Path_343" data-name="Path 343" d="M442.3,113.286c.113-.519.081-.617-.186-.617h-.406l-.26,1.217-.4,1.273h-.754l.616-2.888.09-.422h.69l.089.195a1.811,1.811,0,0,1,.787-.235c.827,0,.762.624.584,1.476H442.3Z" transform="translate(-336.446 -85.438)" fill="#fff"/>
  <path id="Path_344" data-name="Path 344" d="M455.217,112.535a.7.7,0,0,0-.754.633l1.249-.105C455.769,112.787,455.712,112.535,455.217,112.535Zm-.876,1.233c-.056.406.1.544.616.544h1.306l-.13.617a6.326,6.326,0,0,1-1.371.219c-1.452,0-1.468-.819-1.282-1.7.187-.86.52-1.711,1.923-1.711,1.355,0,1.42.819,1.087,2.027Z" transform="translate(-346.46 -85.386)" fill="#fff"/>
  <path id="Path_345" data-name="Path 345" d="M468.036,122.987c-.341,0-.551-.1-.462-.495s.332-.5.673-.5c.316,0,.535.1.454.5A.6.6,0,0,1,468.036,122.987Z" transform="translate(-357.277 -93.217)" fill="#fff"/>
</svg>
