<?xml version="1.0" encoding="UTF-8"?>
<svg id="Calque_1" xmlns="http://www.w3.org/2000/svg" version="1.1" viewBox="0 0 27.7 27.7">
  <!-- Generator: Adobe Illustrator 29.0.1, SVG Export Plug-In . SVG Version: 2.1.0 Build 192)  -->
  <defs>
    <style>
      .st0 {
        fill: none;
        stroke: #fff;
        stroke-linecap: round;
        stroke-linejoin: round;
      }
    </style>
  </defs>
  <path class="st0" d="M3.5,27.2v-4.7c0-1.7-.4-2.6-1.3-4C-1.2,12.7.7,5.5,6.3,2.1c1.8-1.1,3.9-1.6,6-1.6,6.5,0,11.8,5.3,11.9,11.8,0,.8,0,1.2,0,1.4,0,.5.3,1,.6,1.4l2.4,4.6-1.9.9c-.5.3-.8.4-1,.7s-.2.5-.3,1.1h0c-.2,1.3-.5,2.8-1.3,3.7-.3.3-.6.6-1,.8-.6.3-1.4.3-2.9.3s-1.4,0-2.1,0c-1.7,0-2.9-1.4-2.9-3.1"/>
  <path class="st0" d="M17,11.9c-.6,0-1.1-.2-1.5-.6M17,11.9c0,1.5-.9,3-2.6,3s-2.6,1.5-2.6,3M17,11.9c2.9,0,2.9-4.5,0-4.5-.3,0-.5,0-.7.1.1-3.3-4.7-4.2-5.7-1.1M11.8,8.9c0-1-.5-1.9-1.3-2.5M10.5,6.4c-2.5-1.7-5.8,1.3-4.2,4-2.6.4-2.3,4.4.3,4.4.7,0,1.4-.4,1.8-.9"/>
</svg>