<svg id="icon-expressjs" xmlns="http://www.w3.org/2000/svg" width="127" height="40.801" viewBox="0 0 127 40.801">
  <rect id="Rectangle_37" data-name="Rectangle 37" width="127" height="40.801" fill="#fff"/>
  <path id="Path_269" data-name="Path 269" d="M312.731,56.4a9,9,0,0,1-3.907-.887,5.181,5.181,0,0,1-2.9-5.351.291.291,0,0,1,.3-.272.286.286,0,0,1,.272.3A4.7,4.7,0,0,0,309.071,55a8.882,8.882,0,0,0,7.175.148,3.781,3.781,0,0,0,2.488-3.554,3.683,3.683,0,0,0-2.9-3.537c-1.109-.355-2.261-.655-3.374-.945-.952-.248-1.937-.5-2.9-.795-2.076-.63-3.041-1.8-3.037-3.673a4.071,4.071,0,0,1,2.381-3.7,7.627,7.627,0,0,1,4.321-.839c3.362.176,5.44,2.136,5.557,5.242a.286.286,0,0,1-.275.3.28.28,0,0,1-.3-.275c-.1-2.778-1.98-4.532-5.015-4.691a7.1,7.1,0,0,0-4.01.767,3.5,3.5,0,0,0-2.088,3.2c0,1.607.807,2.57,2.63,3.123.948.288,1.927.542,2.874.789,1.121.292,2.28.594,3.4.953,2.134.683,3.336,2.175,3.3,4.094a4.338,4.338,0,0,1-2.856,4.078A10.339,10.339,0,0,1,312.731,56.4Z" transform="translate(-218.327 -27.176)"/>
  <path id="Path_270" data-name="Path 270" d="M370.607,56.4a9,9,0,0,1-3.907-.887,5.18,5.18,0,0,1-2.9-5.351.29.29,0,0,1,.3-.272.286.286,0,0,1,.272.3A4.7,4.7,0,0,0,366.946,55a8.881,8.881,0,0,0,7.175.148,3.78,3.78,0,0,0,2.488-3.554,3.683,3.683,0,0,0-2.9-3.537c-1.11-.355-2.261-.655-3.375-.945-.952-.248-1.936-.5-2.9-.795-2.076-.63-3.041-1.8-3.036-3.673a4.07,4.07,0,0,1,2.381-3.7,7.62,7.62,0,0,1,4.321-.84c3.362.176,5.44,2.136,5.557,5.242a.286.286,0,0,1-.275.3.281.281,0,0,1-.3-.275c-.1-2.778-1.98-4.532-5.015-4.691a7.1,7.1,0,0,0-4.01.767,3.5,3.5,0,0,0-2.088,3.2c0,1.607.807,2.57,2.63,3.123.948.287,1.927.542,2.873.789,1.121.292,2.281.594,3.405.954,2.134.683,3.336,2.175,3.3,4.094a4.337,4.337,0,0,1-2.855,4.077A10.337,10.337,0,0,1,370.607,56.4Z" transform="translate(-259.632 -27.175)"/>
  <path id="Path_271" data-name="Path 271" d="M157,56.428a6.953,6.953,0,0,1-6.3-3.742,5.071,5.071,0,0,1-.658-1.7.286.286,0,1,1,.568-.076,4.436,4.436,0,0,0,.586,1.491,6.492,6.492,0,0,0,7.151,3.351c2.366-.354,4.036-1.848,4.964-4.439,1.347-3.764,1.029-6.942-1-10a5.9,5.9,0,0,0-4.1-2.462A6.637,6.637,0,0,0,153,40.231a8.55,8.55,0,0,0-1.9,2.558c-.15.265-.3.531-.458.793a.286.286,0,1,1-.49-.3c.155-.257.3-.518.45-.778a9.113,9.113,0,0,1,2.032-2.718,7.211,7.211,0,0,1,5.66-1.507,6.476,6.476,0,0,1,4.5,2.711,11.125,11.125,0,0,1,1.061,10.511c-1,2.805-2.827,4.425-5.418,4.813A9.644,9.644,0,0,1,157,56.428Z" transform="translate(-107.078 -27.257)"/>
  <path id="Path_272" data-name="Path 272" d="M39.118,56.491A6.68,6.68,0,0,1,32.5,51.86a12.146,12.146,0,0,1-.521-6.987c.912-4.072,3.379-6.4,6.946-6.568a7.346,7.346,0,0,1,5.647,1.935,8.929,8.929,0,0,1,2.363,6.715.286.286,0,0,1-.135.236,1.675,1.675,0,0,1-1.108.166c-.11-.01-.224-.019-.328-.02-3.857.014-7.714,0-11.572.012-.127,0-.253-.005-.381-.011a2.215,2.215,0,0,0-1.069.121.288.288,0,0,1-.082.025,11.966,11.966,0,0,0,.775,4.175c1.237,3.331,4.148,4.813,7.985,4.066,2.907-.566,4.609-2.348,5.2-5.45a.286.286,0,1,1,.562.108c-.635,3.311-2.538,5.3-5.657,5.9a10.546,10.546,0,0,1-2.01.2ZM39.4,38.867q-.224,0-.454.01c-3.285.15-5.563,2.324-6.414,6.121a11.372,11.372,0,0,0-.259,1.872,3.027,3.027,0,0,1,1.16-.1c.118.005.233.011.354.01,3.857-.008,7.714,0,11.571-.012.127.005.253.011.381.022a1.559,1.559,0,0,0,.621-.02,8.3,8.3,0,0,0-2.194-6.118A6.55,6.55,0,0,0,39.4,38.867Z" transform="translate(-22.615 -27.33)"/>
  <path id="Path_273" data-name="Path 273" d="M250.663,56.492a6.681,6.681,0,0,1-6.621-4.632,12.148,12.148,0,0,1-.521-6.987c.912-4.072,3.379-6.4,6.946-6.568a7.349,7.349,0,0,1,5.647,1.935,8.93,8.93,0,0,1,2.363,6.715.287.287,0,0,1-.135.236,1.672,1.672,0,0,1-1.108.166,2.706,2.706,0,0,0-.327-.02c-3.857.014-7.714,0-11.572.012-.122.005-.254-.005-.381-.011a2.224,2.224,0,0,0-1.069.121.285.285,0,0,1-.082.025,11.964,11.964,0,0,0,.775,4.175c1.237,3.331,4.147,4.813,7.985,4.066,2.907-.566,4.609-2.348,5.2-5.45a.286.286,0,1,1,.563.108c-.635,3.311-2.539,5.3-5.657,5.9A10.551,10.551,0,0,1,250.663,56.492Zm.285-17.624q-.224,0-.454.01c-3.285.15-5.563,2.324-6.414,6.121a11.369,11.369,0,0,0-.259,1.871,3.03,3.03,0,0,1,1.159-.1c.118.005.235.007.355.01,3.857-.007,7.714,0,11.571-.012.129,0,.253.011.382.022a1.566,1.566,0,0,0,.621-.02,8.3,8.3,0,0,0-2.194-6.118,6.55,6.55,0,0,0-4.766-1.783Z" transform="translate(-173.59 -27.33)"/>
  <path id="Path_274" data-name="Path 274" d="M215.268,57.24a.286.286,0,0,1-.286-.286V39.9a.286.286,0,1,1,.573,0V56.954A.286.286,0,0,1,215.268,57.24Z" transform="translate(-153.428 -28.268)"/>
  <path id="Path_275" data-name="Path 275" d="M150.281,63.21a.286.286,0,0,1-.286-.286V39.9a.286.286,0,1,1,.573,0V62.924A.286.286,0,0,1,150.281,63.21Z" transform="translate(-107.048 -28.268)"/>
  <path id="Path_276" data-name="Path 276" d="M121.19,57.594a.284.284,0,0,1-.158-.048c-.039-.026-.082-.049-.124-.073a1.126,1.126,0,0,1-.366-.278q-2.86-3.653-5.717-7.329l-1.044-1.341a.286.286,0,0,1,0-.352l6.184-7.959a.286.286,0,0,1,.452.351l-6.047,7.783.908,1.165q2.865,3.679,5.716,7.327a.739.739,0,0,0,.192.13c.056.031.112.062.164.1a.286.286,0,0,1-.159.525Z" transform="translate(-81.159 -28.622)"/>
  <path id="Path_277" data-name="Path 277" d="M89.2,78.146a.286.286,0,0,1-.159-.525c.052-.034.107-.065.163-.1a.747.747,0,0,0,.193-.131q2.77-3.517,5.528-7.044l1.048-1.338a.286.286,0,1,1,.451.353L95.382,70.7q-2.762,3.525-5.529,7.046a1.136,1.136,0,0,1-.366.277c-.042.023-.085.047-.124.073A.285.285,0,0,1,89.2,78.146Z" transform="translate(-63.459 -49.174)"/>
  <path id="Path_278" data-name="Path 278" d="M215.527,43.393a.772.772,0,0,1-.149-.016.286.286,0,0,1,.111-.562l.01,0a1,1,0,0,0,.033-.116,1.073,1.073,0,0,1,.046-.152c1.322-3.106,3.287-4.431,6.569-4.431a.286.286,0,1,1,0,.573c-3.016,0-4.823,1.221-6.042,4.082a.627.627,0,0,0-.017.064C216,43.207,215.81,43.393,215.527,43.393Z" transform="translate(-153.546 -27.205)"/>
  <path id="Path_279" data-name="Path 279" d="M98.84,48.5a.286.286,0,0,1-.213-.094c-.134-.148-.271-.294-.408-.439a13.344,13.344,0,0,1-.886-1c-1.2-1.557-2.406-3.15-3.572-4.69l-1.292-1.7a.286.286,0,1,1,.456-.346l1.292,1.7c1.166,1.539,2.372,3.131,3.57,4.686.257.334.558.653.848.961.14.148.28.3.417.448a.286.286,0,0,1-.212.478Z" transform="translate(-65.952 -28.622)"/>
</svg>
