<svg xmlns="http://www.w3.org/2000/svg" xmlns:xlink="http://www.w3.org/1999/xlink" width="100" height="97.48" viewBox="0 0 100 97.48">
  <defs>
    <clipPath id="clip-path">
      <rect id="Rectangle_15" data-name="Rectangle 15" width="100" height="97.48" fill="none"/>
    </clipPath>
  </defs>
  <g id="icon-xd" transform="translate(50 48.74)">
    <g id="Group_41" data-name="Group 41" transform="translate(-50 -48.74)" clip-path="url(#clip-path)">
      <path id="Path_70" data-name="Path 70" d="M83.1,97.5H16.9A16.9,16.9,0,0,1,0,80.6V16.9A16.9,16.9,0,0,1,16.9,0H83.1A16.9,16.9,0,0,1,100,16.9V80.6A16.9,16.9,0,0,1,83.1,97.5" fill="#310e2b"/>
      <path id="Path_71" data-name="Path 71" d="M76,35V22c0-.6.1-.7.7-.7h7.9c.6,0,.7.1.7.7V60.5c0,1.9.1,3.8.2,5.7a.8.8,0,0,1-.5.9,34.7,34.7,0,0,1-14.5,2.5,18.1,18.1,0,0,1-10.2-3.4,14.3,14.3,0,0,1-5.4-8.4,21.4,21.4,0,0,1-.5-7.1,16.8,16.8,0,0,1,5.1-10.6,17.4,17.4,0,0,1,9.7-4.8c1.6-.2,3.1-.3,4.7-.4H76M76,43a10.8,10.8,0,0,0-6.7.6,8.5,8.5,0,0,0-4.7,4.6,11.5,11.5,0,0,0-.3,7.4,7.5,7.5,0,0,0,5.8,5.8,18,18,0,0,0,5.3.2l.6-.2Z" fill="#ab5e9f"/>
      <path id="Path_72" data-name="Path 72" d="M33.6,52.4l-1.7,3.3L25.2,68.3a1.1,1.1,0,0,1-1.1.7H14.5a3.8,3.8,0,0,1,.3-.8L27.4,47.4a.6.6,0,0,0,0-.7L15,25.7c-.3-.5-.2-.7.4-.7h9.5a1,1,0,0,1,1,.6c1.6,3.6,3.5,6.9,5.4,10.3,1,1.7,1.9,3.5,2.8,5.3v.2h.1l7.9-15.1.3-.6a.8.8,0,0,1,.9-.6h8.8c.4,0,.5.3.3.6l-4.1,6.7L40.4,45.9a.6.6,0,0,0,0,.8L53.4,68l.2.3c.1.3,0,.5-.4.5H43.4a1.6,1.6,0,0,1-1.5-1l-8-15-.2-.4" fill="#ab5e9f"/>
    </g>
  </g>
</svg>
