<svg xmlns="http://www.w3.org/2000/svg" xmlns:xlink="http://www.w3.org/1999/xlink" width="100.013" height="99.419" viewBox="0 0 100.013 99.419">
  <defs>
    <clipPath id="clip-path">
      <rect id="Rectangle_20" data-name="Rectangle 20" width="100.013" height="99.419" fill="none"/>
    </clipPath>
  </defs>
  <g id="icon-vscode" transform="translate(50.006 49.709)" style="mix-blend-mode: normal;isolation: isolate">
    <g id="Group_50" data-name="Group 50" transform="translate(-50.006 -49.71)" clip-path="url(#clip-path)">
      <g id="Group_49" data-name="Group 49">
        <g id="Group_48" data-name="Group 48">
          <g id="Group_47" data-name="Group 47" clip-path="url(#clip-path)">
            <path id="Path_82" data-name="Path 82" d="M96.47,10.547,75.859.632a6.207,6.207,0,0,0-7.1,1.21L1.376,63.286a4.177,4.177,0,0,0,0,6.168l5.5,5a4.177,4.177,0,0,0,5.309.234l81.2-61.561a4.138,4.138,0,0,1,6.636,3.279v-.234a6.246,6.246,0,0,0-3.552-5.621" transform="translate(-0.01 -0.007)" fill="#0065a9"/>
            <path id="Path_83" data-name="Path 83" d="M96.47,126.226,75.9,136.141a6.207,6.207,0,0,1-7.1-1.21L1.376,73.487a4.177,4.177,0,0,1,0-6.168l5.5-5a4.177,4.177,0,0,1,5.309-.234l81.2,61.561a4.138,4.138,0,0,0,6.636-3.279v.234a6.246,6.246,0,0,1-3.552,5.621" transform="translate(-0.01 -37.339)" fill="#007acc"/>
            <path id="Path_84" data-name="Path 84" d="M183.3,98.822a6.246,6.246,0,0,1-7.1-1.21,3.669,3.669,0,0,0,6.246-2.576V4.431A3.669,3.669,0,0,0,176.2,1.855a6.246,6.246,0,0,1,7.1-1.21l20.572,9.915a6.246,6.246,0,0,1,3.552,5.621V83.325a6.246,6.246,0,0,1-3.552,5.621Z" transform="translate(-107.417 -0.02)" fill="#1f9cf0"/>
          </g>
        </g>
      </g>
    </g>
  </g>
</svg>
