<?xml version="1.0" encoding="UTF-8"?>
<svg id="Calque_1" xmlns="http://www.w3.org/2000/svg" xmlns:xlink="http://www.w3.org/1999/xlink" version="1.1" viewBox="0 0 25.2 25.2">
  <!-- Generator: Adobe Illustrator 29.0.1, SVG Export Plug-In . SVG Version: 2.1.0 Build 192)  -->
  <defs>
    <style>
      .st0 {
        fill: url(#Dégradé_sans_nom);
        fill-rule: evenodd;
      }
    </style>
    <linearGradient id="Dégradé_sans_nom" data-name="Dégradé sans nom" x1="-178.4" y1="253.7" x2="-178.4" y2="254.7" gradientTransform="translate(4508.6 6417) scale(25.2 -25.2)" gradientUnits="userSpaceOnUse">
      <stop offset="0" stop-color="#0052cc"/>
      <stop offset="1" stop-color="#2684ff"/>
    </linearGradient>
  </defs>
  <path class="st0" d="M22.2,0H3C1.3,0,0,1.3,0,3v19.2c0,.8.3,1.6.9,2.1.6.6,1.3.9,2.1.9h19.2c.8,0,1.6-.3,2.1-.9s.9-1.3.9-2.1V3c0-1.7-1.3-3-3-3ZM10.9,18.1c0,.3-.1.5-.3.7-.2.2-.4.3-.7.3h-4.2c-.5,0-1-.4-1-1V5.6c0-.5.4-1,1-1h4.2c.5,0,1,.4,1,1v12.5ZM20.6,12.4c0,.3-.1.5-.3.7s-.4.3-.7.3h-4.2c-.5,0-1-.4-1-1v-6.8c0-.5.4-1,1-1h4.2c.5,0,1,.4,1,1v6.8Z"/>
</svg>