<svg id="icon-nodejs" xmlns="http://www.w3.org/2000/svg" xmlns:xlink="http://www.w3.org/1999/xlink" width="110.486" height="67.667" viewBox="0 0 110.486 67.667">
  <defs>
    <clipPath id="clip-path">
      <path id="Path_65" data-name="Path 65" d="M205.512,226.095l-10.522,6.073a1.27,1.27,0,0,0-.636,1.1v12.155a1.27,1.27,0,0,0,.636,1.1l10.523,6.078a1.274,1.274,0,0,0,1.271,0l10.521-6.078a1.273,1.273,0,0,0,.634-1.1V233.269a1.27,1.27,0,0,0-.637-1.1l-10.52-6.073a1.279,1.279,0,0,0-1.274,0" transform="translate(-194.354 -225.925)"/>
    </clipPath>
    <linearGradient id="linear-gradient" x1="-0.847" y1="-1.034" x2="-0.838" y2="-1.034" gradientUnits="objectBoundingBox">
      <stop offset="0.3" stop-color="#3e863d"/>
      <stop offset="0.5" stop-color="#55934f"/>
      <stop offset="0.8" stop-color="#5aad45"/>
    </linearGradient>
    <clipPath id="clip-path-2">
      <path id="Path_67" data-name="Path 67" d="M195.4,246.3a1.273,1.273,0,0,0,.375.329l9.026,5.214,1.5.864a1.276,1.276,0,0,0,.733.166,1.3,1.3,0,0,0,.25-.046l11.1-20.32a1.258,1.258,0,0,0-.3-.235L211.2,228.3l-3.642-2.1a1.328,1.328,0,0,0-.33-.132Zm0,0" transform="translate(-195.398 -226.069)"/>
    </clipPath>
    <linearGradient id="linear-gradient-2" x1="-0.742" y1="-0.932" x2="-0.737" y2="-0.932" gradientUnits="objectBoundingBox">
      <stop offset="0.57" stop-color="#3e863d"/>
      <stop offset="0.72" stop-color="#619857"/>
      <stop offset="1" stop-color="#76ac64"/>
    </linearGradient>
    <clipPath id="clip-path-3">
      <path id="Path_69" data-name="Path 69" d="M208.022,225.939a1.283,1.283,0,0,0-.508.163l-10.492,6.056,11.314,20.608a1.262,1.262,0,0,0,.452-.156l10.522-6.078a1.275,1.275,0,0,0,.614-.868l-11.534-19.7a1.32,1.32,0,0,0-.257-.025c-.035,0-.07,0-.1,0" transform="translate(-197.021 -225.934)"/>
    </clipPath>
    <linearGradient id="linear-gradient-3" x1="-2.148" y1="-2.103" x2="-2.138" y2="-2.103" gradientUnits="objectBoundingBox">
      <stop offset="0.16" stop-color="#6bbf47"/>
      <stop offset="0.38" stop-color="#79b461"/>
      <stop offset="0.47" stop-color="#75ac64"/>
      <stop offset="0.7" stop-color="#659e5a"/>
      <stop offset="0.9" stop-color="#3e863d"/>
    </linearGradient>
  </defs>
  <path id="Path_60" data-name="Path 60" d="M182.355,189.136a2.1,2.1,0,0,1-1.046-.28l-3.331-1.972c-.5-.278-.255-.377-.091-.433a6.725,6.725,0,0,0,1.506-.687.253.253,0,0,1,.248.017L182.2,187.3a.338.338,0,0,0,.309,0l9.978-5.759a.315.315,0,0,0,.152-.27V169.757a.32.32,0,0,0-.154-.275l-9.974-5.754a.307.307,0,0,0-.307,0l-9.972,5.754a.318.318,0,0,0-.158.272v11.514a.307.307,0,0,0,.155.267l2.732,1.578c1.484.742,2.39-.132,2.39-1.012V170.739a.285.285,0,0,1,.29-.287H178.9a.286.286,0,0,1,.287.287v11.369c0,1.978-1.079,3.114-2.955,3.114a4.277,4.277,0,0,1-2.3-.624l-2.617-1.509a2.11,2.11,0,0,1-1.046-1.821V169.755a2.1,2.1,0,0,1,1.046-1.818l9.988-5.762a2.188,2.188,0,0,1,2.1,0l9.975,5.764a2.1,2.1,0,0,1,1.046,1.818v11.514a2.111,2.111,0,0,1-1.046,1.818l-9.975,5.762a2.1,2.1,0,0,1-1.051.28" transform="translate(-127.746 -121.469)" fill="#689f63"/>
  <path id="Path_61" data-name="Path 61" d="M215.123,197.148c-4.366,0-5.281-2-5.281-3.685a.287.287,0,0,1,.289-.287h1.289a.289.289,0,0,1,.285.244c.195,1.313.774,1.976,3.414,1.976,2.1,0,3-.475,3-1.59,0-.642-.255-1.119-3.522-1.439-2.732-.27-4.421-.872-4.421-3.057,0-2.013,1.7-3.212,4.543-3.212,3.194,0,4.778,1.109,4.978,3.492a.291.291,0,0,1-.077.222.3.3,0,0,1-.212.092h-1.3a.286.286,0,0,1-.28-.225c-.312-1.381-1.066-1.823-3.117-1.823-2.3,0-2.562.8-2.562,1.4,0,.727.315.939,3.412,1.349,3.067.407,4.523.982,4.523,3.137,0,2.173-1.813,3.419-4.975,3.419m12.153-12.211h.335a.291.291,0,0,0,.327-.3c0-.295-.2-.295-.315-.295h-.345Zm-.407-.944h.742c.255,0,.754,0,.754.569a.5.5,0,0,1-.407.529c.3.02.317.215.357.49a2.1,2.1,0,0,0,.112.569h-.457c-.012-.1-.082-.649-.082-.679-.03-.122-.072-.182-.225-.182h-.377v.864h-.417Zm-.892,1.074a1.612,1.612,0,1,0,1.606-1.608,1.614,1.614,0,0,0-1.606,1.608m3.537.008a1.923,1.923,0,1,1-1.923-1.923,1.929,1.929,0,0,1,1.923,1.923" transform="translate(-157.432 -137.415)" fill="#689f63"/>
  <path id="Path_62" data-name="Path 62" d="M23.711,22.616a1.278,1.278,0,0,0-.639-1.11L12.493,15.419a1.235,1.235,0,0,0-.581-.167H11.8a1.257,1.257,0,0,0-.584.167L.64,21.506A1.287,1.287,0,0,0,0,22.617L.023,39.011a.629.629,0,0,0,.317.552.6.6,0,0,0,.634,0l6.289-3.6A1.29,1.29,0,0,0,7.9,34.853V27.194a1.274,1.274,0,0,1,.638-1.106l2.677-1.542a1.27,1.27,0,0,1,.639-.172,1.248,1.248,0,0,1,.635.172l2.676,1.542a1.275,1.275,0,0,1,.639,1.106v7.658a1.294,1.294,0,0,0,.641,1.109l6.285,3.6a.624.624,0,0,0,.639,0,.641.641,0,0,0,.317-.552ZM73.63,31.151a.317.317,0,0,1-.16.276l-3.633,2.094a.32.32,0,0,1-.319,0l-3.634-2.094a.317.317,0,0,1-.16-.276V26.957a.321.321,0,0,1,.157-.277l3.631-2.1a.323.323,0,0,1,.322,0l3.634,2.1a.318.318,0,0,1,.16.277ZM74.611.081a.639.639,0,0,0-.951.559V16.874a.447.447,0,0,1-.67.387l-2.65-1.526a1.276,1.276,0,0,0-1.277,0L58.481,21.842a1.275,1.275,0,0,0-.639,1.1V35.164a1.279,1.279,0,0,0,.639,1.106l10.582,6.112a1.283,1.283,0,0,0,1.278,0l10.582-6.114a1.281,1.281,0,0,0,.639-1.106V4.711a1.281,1.281,0,0,0-.657-1.116ZM109.85,26.846a1.278,1.278,0,0,0,.635-1.1V22.781a1.278,1.278,0,0,0-.636-1.105l-10.515-6.1a1.277,1.277,0,0,0-1.281,0l-10.58,6.107a1.275,1.275,0,0,0-.639,1.106V35a1.282,1.282,0,0,0,.644,1.111L97.991,42.1a1.274,1.274,0,0,0,1.254.007l6.359-3.534a.638.638,0,0,0,0-1.111L94.964,31.354a.634.634,0,0,1-.322-.552V26.97a.634.634,0,0,1,.32-.553l3.312-1.911a.632.632,0,0,1,.637,0l3.314,1.911a.637.637,0,0,1,.32.552v3.012a.637.637,0,0,0,.959.552Zm0,0" transform="translate(0 0)" fill="#eee" fill-rule="evenodd"/>
  <path id="Path_63" data-name="Path 63" d="M388.067,105.1a.242.242,0,0,1,.245,0l2.031,1.171a.245.245,0,0,1,.122.212v2.345a.245.245,0,0,1-.122.212l-2.031,1.171a.242.242,0,0,1-.245,0l-2.029-1.171a.244.244,0,0,1-.125-.212v-2.345a.242.242,0,0,1,.122-.212Zm0,0" transform="translate(-289.528 -78.826)" fill="#689f63" fill-rule="evenodd"/>
  <g id="Group_25" data-name="Group 25" transform="translate(28.984 15.462)" clip-path="url(#clip-path)">
    <path id="Path_64" data-name="Path 64" d="M196.631,203.136,166.981,188.6l-15.2,31.013,29.649,14.534Zm0,0" transform="translate(-162.412 -197.924)" fill="url(#linear-gradient)"/>
  </g>
  <g id="Group_26" data-name="Group 26" transform="translate(29.245 15.498)" clip-path="url(#clip-path-2)">
    <path id="Path_66" data-name="Path 66" d="M144.07,202.557l20.936,28.336,27.688-20.457L171.757,182.1Zm0,0" transform="translate(-156.89 -193.082)" fill="url(#linear-gradient-2)"/>
  </g>
  <g id="Group_27" data-name="Group 27" transform="translate(29.65 15.465)" clip-path="url(#clip-path-3)">
    <path id="Path_68" data-name="Path 68" d="M197.02,225.934v26.832h22.9V225.934Zm0,0" transform="translate(-197.02 -225.934)" fill="url(#linear-gradient-3)"/>
  </g>
</svg>
