<svg id="icon-call" xmlns="http://www.w3.org/2000/svg" width="24.37" height="25.531" viewBox="0 0 24.37 25.531">
  <g id="Group_60" data-name="Group 60" transform="translate(0 0)">
    <g id="Group_59" data-name="Group 59" transform="translate(0 0)">
      <path id="Path_150" data-name="Path 150" d="M249.008,23.2h.05a8.9,8.9,0,0,1,6.49,2.807,9.794,9.794,0,0,1,2.684,6.853,1.034,1.034,0,0,0,1,1.062h0a1.033,1.033,0,0,0,1.009-1.052,11.945,11.945,0,0,0-3.275-8.358,10.863,10.863,0,0,0-7.917-3.426H249a1.058,1.058,0,0,0,0,2.114Z" transform="translate(-236.945 -19.976)" fill="#eee"/>
      <path id="Path_151" data-name="Path 151" d="M24.368,20.573a3.86,3.86,0,0,0-1.106-2.6,8.825,8.825,0,0,0-3.505-2.44,3.808,3.808,0,0,0-4.029,1.2l-.005.006-1.288,1.34a19.284,19.284,0,0,1-4.057-3.29l-.125-.131a20.144,20.144,0,0,1-3.139-4.251L8.391,9.06,8.4,9.055A4.24,4.24,0,0,0,9.539,4.834,9.331,9.331,0,0,0,7.211,1.162,3.505,3.505,0,0,0,2.183.972L2.156,1l-.037.037A8.312,8.312,0,0,0,0,6.961c.02,4.1,2.17,8.789,5.754,12.543l.009.009a23.59,23.59,0,0,0,2.273,2.073A.923.923,0,0,0,9.371,21.4,1.029,1.029,0,0,0,9.195,20,21.615,21.615,0,0,1,7.1,18.094l-.009-.009C3.86,14.7,1.921,10.534,1.9,6.951A6.335,6.335,0,0,1,3.448,2.463l.007-.007a1.657,1.657,0,0,1,2.385.09C8.3,5.224,8.126,6.488,7.037,7.658L5.273,9.521a1.033,1.033,0,0,0-.194,1.108,20.186,20.186,0,0,0,3.828,5.442l.125.131a19.256,19.256,0,0,0,5.194,4.01.92.92,0,0,0,1.058-.2l1.778-1.848c1.117-1.141,2.324-1.328,4.88,1.254a1.856,1.856,0,0,1,.086,2.5l-.007.008a5.712,5.712,0,0,1-4.241,1.617h-.043a11.88,11.88,0,0,1-4.7-1.165.936.936,0,0,0-1.251.521,1.016,1.016,0,0,0,.5,1.311,13.514,13.514,0,0,0,5.442,1.328h.053a7.516,7.516,0,0,0,5.6-2.22l.035-.039.025-.029A3.886,3.886,0,0,0,24.368,20.573Z" transform="translate(0 -0.001)" fill="#eee"/>
      <path id="Path_152" data-name="Path 152" d="M296.08,113.554a5.476,5.476,0,0,0-2.62-1.579,1,1,0,0,0-1.241.737,1.064,1.064,0,0,0,.7,1.3,3.485,3.485,0,0,1,1.731,1.036,3.83,3.83,0,0,1,.979,1.78l.015.052a1.016,1.016,0,0,0,.967.757.965.965,0,0,0,.287-.044,1.066,1.066,0,0,0,.681-1.313l-.014-.049A5.9,5.9,0,0,0,296.08,113.554Z" transform="translate(-278.497 -106.443)" fill="#eee"/>
    </g>
  </g>
</svg>
