<svg xmlns="http://www.w3.org/2000/svg" width="24.042" height="15.967" viewBox="0 0 24.042 15.967">
  <g id="icon-copy" transform="translate(12.016 -2.769) rotate(45)">
    <g id="Group_57" data-name="Group 57" transform="translate(-0.993 -1)">
      <g id="Group_56" data-name="Group 56" transform="translate(0 0)">
        <path id="Path_143" data-name="Path 143" d="M6.054,184.034l-2,2a2.125,2.125,0,1,1-3.005-3l4.007-4.007a2.124,2.124,0,0,1,3,0,.708.708,0,1,0,1-1,3.541,3.541,0,0,0-5.008,0L.044,182.031a3.542,3.542,0,1,0,5.009,5.008l2-2a.708.708,0,1,0-1-1Z" transform="translate(0.993 -171.077)" fill="#eee"/>
        <path id="Path_144" data-name="Path 144" d="M199.559.037a3.542,3.542,0,0,0-5.009,0l-2.4,2.4a.708.708,0,1,0,1,1l2.4-2.4a2.125,2.125,0,0,1,3.005,3L194.15,8.451a2.124,2.124,0,0,1-3,0,.708.708,0,0,0-1,1,3.541,3.541,0,0,0,5.008,0l4.407-4.407A3.541,3.541,0,0,0,199.559.037Z" transform="translate(-183.596 1)" fill="#eee"/>
      </g>
    </g>
  </g>
</svg>
