<svg id="icon-json" xmlns="http://www.w3.org/2000/svg" xmlns:xlink="http://www.w3.org/1999/xlink" width="74" height="74" viewBox="0 0 74 74">
  <defs>
    <linearGradient id="linear-gradient" x1="0.562" y1="0.129" x2="0.49" y2="0.857" gradientUnits="objectBoundingBox">
      <stop offset="0"/>
      <stop offset="1" stop-color="#fff"/>
    </linearGradient>
    <linearGradient id="linear-gradient-2" x1="0.449" y1="0.853" x2="0.483" y2="0.066" xlink:href="#linear-gradient"/>
    <clipPath id="clip-path">
      <path id="Path_156" data-name="Path 156" d="M0,37.116c0,23.77,20.646,36.938,36.924,36.938C33.24,73.522,20.965,70.892,20.8,42.619c-.111-19.123,6.238-26.763,16.1-23.4.221.082,10.875,4.285,10.875,18.014,0,13.672-10.835,17.906-10.835,17.906,16.372,22.318,32.393-6.229,32.37-23.4C69.279,11.443,48.707.1,36.924.1,18.011.1,0,15.73,0,37.116" transform="translate(0 -0.099)" fill="url(#linear-gradient)"/>
    </clipPath>
    <clipPath id="clip-path-2">
      <path id="Path_157" data-name="Path 157" d="M76.308,31.975c0,17.64-14.778,27.244-24.39,23.141-.22-.082-10.875-4.286-10.875-18.015,0-13.671,10.807-17.953,10.807-17.953-10.818-3.729-24.07,5.187-24.07,23.046C27.78,71.354,49.388,74,52.008,74,70.92,74,88.932,58.369,88.932,36.983c0-22.614-18.686-35.631-34.52-36.845,6.839,1.041,21.9,8.242,21.9,31.837M52.757,0a5.5,5.5,0,0,0-.749.046q1.188,0,2.4.093A11.167,11.167,0,0,0,52.762,0Z" transform="translate(-27.78)" fill="url(#linear-gradient-2)"/>
    </clipPath>
  </defs>
  <g id="Group_71" data-name="Group 71" transform="translate(0 0.046)">
    <g id="Group_70" data-name="Group 70" clip-path="url(#clip-path)">
      <rect id="Rectangle_30" data-name="Rectangle 30" width="103.723" height="103.724" transform="translate(-38.678 38.678) rotate(-45)" fill="url(#linear-gradient)"/>
    </g>
  </g>
  <g id="Group_73" data-name="Group 73" transform="translate(12.848)">
    <g id="Group_72" data-name="Group 72" clip-path="url(#clip-path-2)">
      <rect id="Rectangle_31" data-name="Rectangle 31" width="95.567" height="95.568" transform="translate(-37 37) rotate(-45)" fill="url(#linear-gradient-2)"/>
    </g>
  </g>
</svg>
