<svg xmlns="http://www.w3.org/2000/svg" width="106.272" height="54.883" viewBox="0 0 106.272 54.883">
  <g id="icon-mysql" transform="translate(-0.738 -0.474)">
    <g id="Group_17" data-name="Group 17" transform="translate(0.738 33.982)">
      <path id="Path_52" data-name="Path 52" d="M0,18.266H3.5V4.44l5.42,12.053a2.983,2.983,0,0,0,3.232,1.975,2.943,2.943,0,0,0,3.2-1.975L20.771,4.44V18.266h3.5V4.463a2.1,2.1,0,0,0-1.65-2.334c-2.66-.83-4.444-.112-5.252,1.683L12.052,15.707,6.9,3.812C6.127,2.017,4.309,1.3,1.65,2.129A2.1,2.1,0,0,0,0,4.463Z" transform="translate(0 -1.785)" fill="#00618a"/>
    </g>
    <g id="Group_18" data-name="Group 18" transform="translate(27.922 39.172)">
      <path id="Path_53" data-name="Path 53" d="M0,.037H3.5V7.654c-.033.414.133,1.385,2.051,1.415.978.015,7.552,0,7.613,0V0h3.508c.016,0,0,12.368,0,12.42.019,3.05-3.785,3.713-5.538,3.764H.078V13.829c.019,0,11.047,0,11.075,0,2.253-.238,1.987-1.358,1.987-1.735v-.918H5.7C2.236,11.143.031,9.632,0,7.894,0,7.733.079.113,0,.037Z" transform="translate(-0.002)" fill="#00618a"/>
    </g>
    <g id="Group_19" data-name="Group 19" transform="translate(47.293 34.303)">
      <path id="Path_54" data-name="Path 54" d="M0,16.159H10.066a7.764,7.764,0,0,0,3.232-.673c1.515-.7,2.255-1.638,2.255-2.873V10.055c0-1.01-.842-1.953-2.491-2.581a8.606,8.606,0,0,0-3-.516H5.824c-1.414,0-2.087-.426-2.255-1.369a1,1,0,0,1-.034-.314V3.681a.93.93,0,0,1,.034-.292c.168-.718.539-.92,1.784-1.032.1,0,.236-.023.337-.023h10V0H5.858A9.446,9.446,0,0,0,3.03.291c-2.087.651-3,1.684-3,3.479V5.813c0,1.571,1.784,2.918,4.78,3.232.337.022.673.045,1.01.045H9.46a1.859,1.859,0,0,1,.371.023c1.111.09,1.582.292,1.919.7a.835.835,0,0,1,.269.628v2.042a1.169,1.169,0,0,1-.5.83,2.483,2.483,0,0,1-1.481.494c-.135,0-.236.022-.37.022H0Z" fill="#e48e00"/>
    </g>
    <g id="Group_20" data-name="Group 20" transform="translate(84.687 34.303)">
      <path id="Path_55" data-name="Path 55" d="M0,12.1c0,2.4,1.784,3.748,5.386,4.018.336.022.673.045,1.01.045H15.52V13.825H6.329c-2.053,0-2.828-.516-2.828-1.751V0H0Z" fill="#e48e00"/>
    </g>
    <g id="Group_21" data-name="Group 21" transform="translate(65.08 34.333)">
      <path id="Path_56" data-name="Path 56" d="M0,12.19V3.868C0,1.754,1.484.472,4.419.067A6.715,6.715,0,0,1,5.364,0h6.646a7.2,7.2,0,0,1,.978.067c2.935.4,4.419,1.687,4.419,3.8V12.19a3.038,3.038,0,0,1-2.083,3.231l3.449,3.113H14.707l-2.79-2.519-2.809.178H5.364A7.76,7.76,0,0,1,3.306,15.9C1.08,15.294,0,14.124,0,12.19Zm3.779-.2a1.535,1.535,0,0,0,.067.36c.2.967,1.113,1.507,2.5,1.507H9.523L6.6,11.216h4.065l2.548,2.3a1.659,1.659,0,0,0,.887-1.125,1.154,1.154,0,0,0,.034-.337V4.071a1.084,1.084,0,0,0-.034-.315c-.2-.9-1.113-1.417-2.463-1.417h-5.3c-1.552,0-2.564.675-2.564,1.732Z" fill="#e48e00"/>
    </g>
    <g id="Group_22" data-name="Group 22" transform="translate(66.953 0.474)">
      <path id="Path_57" data-name="Path 57" d="M38.354,35.074a12.318,12.318,0,0,0-5.2.734c-.4.168-1.036.173-1.1.673.219.23.254.574.428.857a6.757,6.757,0,0,0,1.408,1.652c.552.417,1.122.863,1.714,1.224,1.053.642,2.229,1.009,3.243,1.652.6.379,1.191.857,1.775,1.285.288.212.482.541.857.673v-.061c-.2-.251-.248-.6-.428-.857l-.8-.8a13.054,13.054,0,0,0-2.815-2.693c-.837-.6-2.711-1.413-3.06-2.387l-.061-.061a13.452,13.452,0,0,0,1.836-.428c.92-.247,1.742-.183,2.693-.428l1.285-.367V35.5c-.48-.493-.823-1.145-1.347-1.591a39.282,39.282,0,0,0-4.406-3.3c-.854-.539-1.91-.89-2.815-1.346-.3-.154-.839-.234-1.041-.49a12.957,12.957,0,0,1-1.1-2.081c-.768-1.479-1.523-3.095-2.2-4.651a25.064,25.064,0,0,0-1.346-3.06,27.026,27.026,0,0,0-10.4-10.036,12.47,12.47,0,0,0-3.427-1.1L10.02,7.719A10.743,10.743,0,0,1,8.8,6.8c-1.535-.97-5.472-3.079-6.609-.306C1.47,8.245,3.26,9.953,3.9,10.84a13.134,13.134,0,0,1,1.346,2.019c.211.46.248.921.429,1.408a32.4,32.4,0,0,0,1.407,3.611,12.789,12.789,0,0,0,.979,1.652c.225.308.612.443.673.918a7.478,7.478,0,0,0-.612,2.019,11.72,11.72,0,0,0,.8,9c.427.685,1.432,2.155,2.815,1.591,1.209-.493.939-2.019,1.285-3.366.078-.305.03-.53.183-.734v.061l1.1,2.2a14.991,14.991,0,0,0,3.488,3.611c.636.48,1.136,1.31,1.958,1.591v-.061h-.061c-.159-.248-.408-.351-.612-.551a14.024,14.024,0,0,1-1.408-1.591,37.24,37.24,0,0,1-3-4.9c-.429-.823-.8-1.732-1.163-2.57-.139-.323-.138-.812-.428-.979A12.231,12.231,0,0,0,11.8,27.608a15.716,15.716,0,0,0-.734,4.039c-.107.038-.06.012-.123.061-.852-.206-1.152-1.083-1.468-1.836a11.569,11.569,0,0,1-.245-7.16c.182-.567,1.007-2.353.673-2.876-.159-.523-.685-.825-.979-1.224A9.63,9.63,0,0,1,7.94,16.9c-.656-1.484-.962-3.15-1.652-4.651a13.58,13.58,0,0,0-1.346-2.081A12.133,12.133,0,0,1,3.473,8.086c-.14-.3-.33-.789-.122-1.1a.485.485,0,0,1,.367-.367c.355-.274,1.344.091,1.713.245A14.915,14.915,0,0,1,8.062,8.208c.4.265.8.776,1.285.918H9.9c.862.2,1.827.062,2.631.306a15.915,15.915,0,0,1,3.855,1.836,23.867,23.867,0,0,1,8.384,9.18c.317.609.455,1.19.734,1.836.564,1.3,1.275,2.643,1.836,3.916a18.289,18.289,0,0,0,1.9,3.611c.416.556,2.023.854,2.754,1.163a16.226,16.226,0,0,1,1.836.734c.926.559,1.824,1.224,2.693,1.836C36.953,33.85,38.288,34.521,38.354,35.074Z" transform="translate(-2.021 -5.117)" fill="#00618a"/>
    </g>
    <g id="Group_23" data-name="Group 23" transform="translate(74.831 7.114)">
      <path id="Path_58" data-name="Path 58" d="M1.1.028A4.378,4.378,0,0,0,0,.15V.212H.061a8.4,8.4,0,0,0,.857,1.1L1.53,2.6l.061-.061a1.494,1.494,0,0,0,.551-1.346c-.152-.16-.174-.36-.306-.551C1.661.386,1.322.242,1.1.028Z" transform="translate(0 -0.027)" fill="#00618a" fill-rule="evenodd"/>
    </g>
    <g id="Group_24" data-name="Group 24" transform="translate(101.85 45.482)">
      <path id="Path_59" data-name="Path 59" d="M0,2.58A2.546,2.546,0,0,0,2.58,5.16,2.546,2.546,0,0,0,5.16,2.58,2.545,2.545,0,0,0,2.58,0,2.545,2.545,0,0,0,0,2.58Zm4.582,0a2,2,0,1,1-4,0,2,2,0,1,1,4,0ZM3.275,4.052h.578L3.007,2.759c.454-.048.8-.269.8-.805,0-.6-.378-.846-1.107-.846H1.548V4.052h.5V2.779H2.5ZM2.044,2.367V1.52h.571c.3,0,.654.055.654.4,0,.412-.323.447-.695.447Z" fill="#e48e00" fill-rule="evenodd"/>
    </g>
  </g>
</svg>
