<svg xmlns="http://www.w3.org/2000/svg" width="85.012" height="96.4" viewBox="0 0 85.012 96.4">
  <g id="icon-html" transform="translate(-74.6 -100.6)">
    <path id="Path_47" data-name="Path 47" d="M82.333,187.393,74.6,100.6h85.012l-7.733,86.746L117.036,197" fill="#e44d26"/>
    <path id="Path_48" data-name="Path 48" d="M256,212.9V131h34.75l-6.631,74.046" transform="translate(-138.894 -23.277)" fill="#f16529"/>
    <path id="Path_49" data-name="Path 49" d="M142,176.3h26.713v10.638H153.669l.984,10.9h14.059v10.615H144.906m.469,5.343h10.685l.75,8.506,11.9,3.187v11.107L146.874,230.5" transform="translate(-51.607 -57.962)" fill="#ebebeb"/>
    <path id="Path_50" data-name="Path 50" d="M282.466,176.3H255.8v10.638h25.682m-.961,10.9H255.8v10.638h13.122L267.68,222.3l-11.88,3.187v11.06l21.792-6.046" transform="translate(-138.741 -57.962)" fill="#fff"/>
  </g>
</svg>
