<svg id="icon-js" xmlns="http://www.w3.org/2000/svg" width="95" height="95" viewBox="0 0 95 95">
  <rect id="Rectangle_13" data-name="Rectangle 13" width="95" height="95" fill="#f7df1e"/>
  <path id="Path_51" data-name="Path 51" d="M204.682,317c1.914,3.124,4.4,5.421,8.806,5.421,3.7,0,6.062-1.849,6.062-4.4,0-3.061-2.428-4.145-6.5-5.926l-2.232-.958c-6.442-2.744-10.721-6.183-10.721-13.451,0-6.7,5.1-11.792,13.074-11.792,5.676,0,9.756,1.975,12.7,7.148l-6.952,4.464c-1.531-2.744-3.182-3.826-5.745-3.826-2.615,0-4.272,1.659-4.272,3.826,0,2.678,1.659,3.762,5.489,5.421l2.232.956c7.585,3.253,11.867,6.569,11.867,14.024,0,8.037-6.314,12.44-14.793,12.44-8.291,0-13.647-3.951-16.268-9.129Zm-31.535.774c1.4,2.488,2.678,4.592,5.745,4.592,2.933,0,4.783-1.148,4.783-5.61V286.4H192.6v30.475c0,9.244-5.42,13.451-13.33,13.451-7.148,0-11.287-3.7-13.392-8.154Z" transform="translate(-140.866 -242.78)"/>
</svg>
