<svg id="icon-ps" xmlns="http://www.w3.org/2000/svg" width="100" height="97.5" viewBox="0 0 100 97.5">
  <g id="Surfaces">
    <g id="Photo_Surface">
      <g id="Outline_no_shadow">
        <path id="Path_70" data-name="Path 70" d="M17.708,0H82.292A17.693,17.693,0,0,1,100,17.708V79.792A17.693,17.693,0,0,1,82.292,97.5H17.708A17.693,17.693,0,0,1,0,79.792V17.708A17.693,17.693,0,0,1,17.708,0Z" fill="#001e36"/>
      </g>
    </g>
  </g>
  <g id="Outlined_Mnemonics_Logos" transform="translate(22.5 24.792)">
    <g id="Ps">
      <path id="Path_71" data-name="Path 71" d="M54,103.083V60.208c0-.292.125-.458.417-.458.708,0,1.375,0,2.333-.042,1-.042,2.042-.042,3.167-.083s2.333-.042,3.625-.083,2.542-.042,3.792-.042a24.5,24.5,0,0,1,8.583,1.292A14.879,14.879,0,0,1,81.5,64.208a13.267,13.267,0,0,1,3.042,4.75,15.948,15.948,0,0,1,.958,5.417A14.9,14.9,0,0,1,83,83.25a14.275,14.275,0,0,1-6.708,5.083,27,27,0,0,1-9.375,1.417c-1,0-1.667,0-2.083-.042s-1-.042-1.792-.042v13.375a.518.518,0,0,1-.458.583H54.5C54.167,103.625,54,103.458,54,103.083Zm9.083-35.292v14c.583.042,1.125.083,1.625.083h2.208a15.564,15.564,0,0,0,4.792-.75,7.166,7.166,0,0,0,3.417-2.208,6.439,6.439,0,0,0,1.292-4.292,6.858,6.858,0,0,0-.958-3.708,6.042,6.042,0,0,0-2.917-2.375,12.226,12.226,0,0,0-4.917-.833c-1.083,0-2.042,0-2.833.042a9.539,9.539,0,0,0-1.708.042Z" transform="translate(-54 -59.5)" fill="#31a8ff"/>
      <path id="Path_72" data-name="Path 72" d="M161.834,93.717a14.747,14.747,0,0,0-4-1.417,21.964,21.964,0,0,0-4.667-.542,8.389,8.389,0,0,0-2.5.292,2.139,2.139,0,0,0-1.292.833,2.208,2.208,0,0,0-.333,1.125,1.853,1.853,0,0,0,.417,1.083,4.7,4.7,0,0,0,1.417,1.125c.958.5,1.958.958,2.958,1.375a30.179,30.179,0,0,1,6.417,3.042,9.7,9.7,0,0,1,3.292,3.458,8.995,8.995,0,0,1,.958,4.292,9.7,9.7,0,0,1-1.625,5.542,10.441,10.441,0,0,1-4.667,3.708,19.091,19.091,0,0,1-7.542,1.333,28.7,28.7,0,0,1-5.667-.542,16.807,16.807,0,0,1-4.25-1.333.819.819,0,0,1-.458-.792v-7.25a.452.452,0,0,1,.167-.375.317.317,0,0,1,.375.042A17.836,17.836,0,0,0,146,110.758a19.4,19.4,0,0,0,4.917.625,7.953,7.953,0,0,0,3.458-.583,1.936,1.936,0,0,0,1.125-1.75,2.208,2.208,0,0,0-1-1.667,17.671,17.671,0,0,0-4.083-1.958,25.493,25.493,0,0,1-5.917-3,10.789,10.789,0,0,1-3.167-3.542,8.941,8.941,0,0,1-.958-4.25,9.8,9.8,0,0,1,1.417-5.042,10.271,10.271,0,0,1,4.375-3.833,16.158,16.158,0,0,1,7.375-1.458,35.921,35.921,0,0,1,5.167.375,14.66,14.66,0,0,1,3.583.958.732.732,0,0,1,.417.375,2.092,2.092,0,0,1,.083.5V93.3a.513.513,0,0,1-.208.417A1.11,1.11,0,0,1,161.834,93.717Z" transform="translate(-104.334 -73.967)" fill="#31a8ff"/>
    </g>
  </g>
</svg>
