<svg xmlns="http://www.w3.org/2000/svg" width="69.887" height="85.498" viewBox="0 0 69.887 85.498">
  <g id="icon-uml" transform="translate(-81.033 -12.158)">
    <path id="Path_96" data-name="Path 96" d="M190.105,140.35V115.312l4.8,27.042,7.815,3.9,5.023-22.48v24.594l8.82,4.339V111.195l-13.4-6.344-4.242,19.808-4.279-23.888-13.323-6.38v41.545Z" transform="translate(-100.29 -55.258)" fill="#fbbd16"/>
    <path id="Path_97" data-name="Path 97" d="M292.5,130.689l13.993-7.271v30.12l19.351-10.015.074,11.35-33.38,17.545Z" transform="translate(-174.995 -74.763)" fill="#452e7f"/>
    <path id="Path_98" data-name="Path 98" d="M215.115,12.158l-9.894,8.748s19.305,9.923,21.65,11.1,5.683,3.428,2.075,6.766A8.757,8.757,0,0,1,218.662,40.3c-2.706-1.353-22.733-11.457-22.733-11.457L185.736,37.5S205.4,47.518,208.649,49.232a25.408,25.408,0,0,0,26.792-2.977c11.457-8.931,9.833-12.178,9.833-12.81a9.944,9.944,0,0,0-2.255-6.044c-1.985-2.075-7.758-5.052-10.194-6.315S215.115,12.158,215.115,12.158Z" transform="translate(-103.256 0)" fill="#962444"/>
    <g id="Group_51" data-name="Group 51" transform="translate(145.19 60.386)">
      <path id="Path_122" data-name="Path 122" d="M382.219,161.766a2.658,2.658,0,1,1-2.649-2.586A2.6,2.6,0,0,1,382.219,161.766Zm-4.652,0a2,2,0,0,0,2.018,2.066,1.981,1.981,0,0,0,1.971-2.05,2,2,0,1,0-3.99-.016Zm1.593,1.356h-.6v-2.586a5.187,5.187,0,0,1,.994-.079,1.612,1.612,0,0,1,.9.189.716.716,0,0,1,.252.568.663.663,0,0,1-.536.6v.031a.762.762,0,0,1,.473.631,1.986,1.986,0,0,0,.189.647h-.646a2.212,2.212,0,0,1-.205-.631c-.047-.284-.2-.41-.536-.41h-.283v1.041Zm.016-1.466h.284c.331,0,.6-.11.6-.378,0-.237-.173-.394-.552-.394a1.417,1.417,0,0,0-.331.032v.741Z" transform="translate(-376.905 -159.18)" fill="#6d6e71"/>
    </g>
  </g>
</svg>
