<svg id="icon-ai" xmlns="http://www.w3.org/2000/svg" width="100" height="97.5" viewBox="0 0 100 97.5">
  <g id="Surfaces">
    <g id="Drawing_Surface">
      <g id="Outline_no_shadow">
        <path id="Path_73" data-name="Path 73" d="M17.708,0H82.292A17.693,17.693,0,0,1,100,17.708V79.792A17.693,17.693,0,0,1,82.292,97.5H17.708A17.693,17.693,0,0,1,0,79.792V17.708A17.693,17.693,0,0,1,17.708,0Z" fill="#300"/>
      </g>
    </g>
  </g>
  <g id="Outlined_Mnemonics_Logos" transform="translate(20.663 21.625)">
    <g id="Ai">
      <path id="Path_74" data-name="Path 74" d="M77.386,93.442h-15.5l-3.167,9.792a.729.729,0,0,1-.792.583H50.094c-.458,0-.583-.25-.458-.75L63.053,64.442c.125-.417.25-.875.417-1.375a14.554,14.554,0,0,0,.25-2.708.413.413,0,0,1,.333-.458H74.844c.333,0,.5.125.542.333L90.594,103.15c.125.458,0,.667-.417.667H81.469a.629.629,0,0,1-.667-.458ZM64.3,84.983H74.886c-.25-.875-.583-1.917-.958-3-.375-1.125-.75-2.333-1.125-3.583-.417-1.292-.792-2.542-1.208-3.833s-.792-2.5-1.125-3.708c-.333-1.167-.625-2.25-.917-3.25h-.083a51.162,51.162,0,0,1-1.417,5.375c-.625,2-1.25,4.083-1.917,6.167-.583,2.125-1.208,4.083-1.833,5.833Z" transform="translate(-49.59 -56.567)" fill="#ff9a00"/>
      <path id="Path_75" data-name="Path 75" d="M162.622,62.358a5.157,5.157,0,0,1-3.708-1.458,5.413,5.413,0,0,1-1.417-3.833,4.9,4.9,0,0,1,1.5-3.708A5.336,5.336,0,0,1,162.7,51.9a4.989,4.989,0,0,1,3.792,1.458,5.728,5.728,0,0,1-.083,7.542A4.9,4.9,0,0,1,162.622,62.358Zm-4.667,36.167V66.442c0-.417.167-.583.542-.583h8.25c.375,0,.542.208.542.583V98.525c0,.458-.167.667-.542.667H158.58A.583.583,0,0,1,157.955,98.525Z" transform="translate(-112.534 -51.9)" fill="#ff9a00"/>
    </g>
  </g>
</svg>
