<svg id="icon-id" xmlns="http://www.w3.org/2000/svg" width="100" height="97.5" viewBox="0 0 100 97.5">
  <path id="Path_76" data-name="Path 76" d="M17.708,0H82.292A17.693,17.693,0,0,1,100,17.708V79.792A17.693,17.693,0,0,1,82.292,97.5H17.708A17.693,17.693,0,0,1,0,79.792V17.708A17.693,17.693,0,0,1,17.708,0Z" fill="#49021f"/>
  <g id="Outlined_Mnemonics_Logos" transform="translate(27.042 21.369)">
    <g id="Id">
      <path id="Path_77" data-name="Path 77" d="M74.192,60.433v42.75c0,.458-.208.667-.583.667H65.442c-.375,0-.542-.208-.542-.667V60.433c0-.375.208-.542.583-.542h8.125a.471.471,0,0,1,.542.417A.153.153,0,0,1,74.192,60.433Z" transform="translate(-64.9 -56.301)" fill="#f36"/>
      <path id="Path_78" data-name="Path 78" d="M120.239,99.5a20.715,20.715,0,0,1-8.958-1.875,14.526,14.526,0,0,1-6.292-5.667,18.029,18.029,0,0,1-2.292-9.5,17.113,17.113,0,0,1,2.292-8.792,17.3,17.3,0,0,1,6.625-6.458,21.313,21.313,0,0,1,10.542-2.417,7.441,7.441,0,0,1,.875.042c.375.042.792.042,1.292.083V51.749c0-.292.125-.458.417-.458H133.2a.374.374,0,0,1,.417.292v39.75c0,.75.042,1.583.083,2.5.083.875.125,1.708.167,2.417a.677.677,0,0,1-.417.667,31.822,31.822,0,0,1-6.792,2A36.39,36.39,0,0,1,120.239,99.5Zm4.083-8.333V72.833a10.66,10.66,0,0,0-1.125-.208c-.458-.042-.917-.083-1.375-.083a10.272,10.272,0,0,0-4.708,1.083,9.341,9.341,0,0,0-3.542,3.083A9.236,9.236,0,0,0,112.2,82a11.611,11.611,0,0,0,.708,4.292,8.143,8.143,0,0,0,1.875,2.958,7.2,7.2,0,0,0,2.833,1.667,10.907,10.907,0,0,0,3.458.542c.625,0,1.208-.042,1.75-.083A3.548,3.548,0,0,0,124.323,91.166Z" transform="translate(-86.948 -51.284)" fill="#f36"/>
    </g>
  </g>
</svg>
