<svg xmlns="http://www.w3.org/2000/svg" width="22.183" height="22.183" viewBox="0 0 22.183 22.183">
  <g id="icon-print" transform="translate(-1.75 -1.75)">
    <path id="Path_133" data-name="Path 133" d="M22.444,32.6H18.107a.31.31,0,1,1,0-.62h4.337a.62.62,0,0,0,.62-.62V24.239a.62.62,0,0,0-.62-.62H3.239a.62.62,0,0,0-.62.62v7.124a.62.62,0,0,0,.62.62H7.576a.31.31,0,1,1,0,.62H3.239A1.239,1.239,0,0,1,2,31.363V24.239A1.239,1.239,0,0,1,3.239,23h19.2a1.239,1.239,0,0,1,1.239,1.239v7.124A1.239,1.239,0,0,1,22.444,32.6Z" transform="translate(0 -14.495)" fill="#eee" stroke="#eee" stroke-width="0.5"/>
    <path id="Path_134" data-name="Path 134" d="M36.758,70.62h-.9a.31.31,0,1,1,0-.62h.9a.31.31,0,1,1,0,.62Z" transform="translate(-23.158 -46.937)" fill="#eee" stroke="#eee" stroke-width="0.5"/>
    <path id="Path_135" data-name="Path 135" d="M29.841,55.089H27.5a.31.31,0,1,1,0-.62h2.029V48.12H19.62v6.35h2.648a.31.31,0,0,1,0,.62H19.31a.31.31,0,0,1-.31-.31V47.81a.31.31,0,0,1,.31-.31H29.841a.31.31,0,0,1,.31.31v6.969A.31.31,0,0,1,29.841,55.089Z" transform="translate(-11.734 -31.406)" fill="#eee" stroke="#eee" stroke-width="0.5"/>
    <path id="Path_136" data-name="Path 136" d="M27.558,45.545H25.7a.31.31,0,1,1,0-.62h1.549V42.834a.465.465,0,0,0-.465-.465h-12.7a.465.465,0,0,0-.465.465v2.091h1.549a.31.31,0,0,1,0,.62H13.31a.31.31,0,0,1-.31-.31v-2.4a1.084,1.084,0,0,1,1.084-1.084h12.7a1.084,1.084,0,0,1,1.084,1.084v2.4A.31.31,0,0,1,27.558,45.545Z" transform="translate(-7.593 -27.437)" fill="#eee" stroke="#eee" stroke-width="0.5"/>
    <path id="Path_137" data-name="Path 137" d="M32.267,57.037H25.685a.31.31,0,1,1,0-.62h6.582a.31.31,0,0,1,0,.62Z" transform="translate(-16.134 -37.561)" fill="#eee" stroke="#eee" stroke-width="0.5"/>
    <path id="Path_138" data-name="Path 138" d="M32.267,63.62H25.685a.31.31,0,1,1,0-.62h6.582a.31.31,0,1,1,0,.62Z" transform="translate(-16.134 -42.105)" fill="#eee" stroke="#eee" stroke-width="0.5"/>
    <path id="Path_139" data-name="Path 139" d="M29.461,9.124H18.31a.31.31,0,0,1-.31-.31V2.31A.31.31,0,0,1,18.31,2h8.233a.31.31,0,0,1,.219.091L29.68,5.009a.31.31,0,0,1,.091.219V8.815A.31.31,0,0,1,29.461,9.124ZM18.62,8.5H29.151V5.356L26.415,2.62h-7.8Z" transform="translate(-11.044)" fill="#eee" stroke="#eee" stroke-width="0.5"/>
    <path id="Path_140" data-name="Path 140" d="M47.808,5.537H44.89a.31.31,0,0,1-.31-.31V2.31a.31.31,0,1,1,.62,0V4.918h2.608a.31.31,0,1,1,0,.62Z" transform="translate(-29.391)" fill="#eee" stroke="#eee" stroke-width="0.5"/>
    <path id="Path_141" data-name="Path 141" d="M59.252,30.432a1.09,1.09,0,1,1,1.09-1.09,1.09,1.09,0,0,1-1.09,1.09Zm0-1.561a.471.471,0,1,0,.471.471.471.471,0,0,0-.471-.471Z" transform="translate(-38.766 -18.12)" fill="#eee" stroke="#eee" stroke-width="0.5"/>
    <path id="Path_142" data-name="Path 142" d="M49.87,30.432a1.09,1.09,0,1,1,1.09-1.09A1.09,1.09,0,0,1,49.87,30.432Zm0-1.561a.471.471,0,1,0,.47.47.471.471,0,0,0-.47-.47Z" transform="translate(-32.29 -18.12)" fill="#eee" stroke="#eee" stroke-width="0.5"/>
  </g>
</svg>
