<svg xmlns="http://www.w3.org/2000/svg" width="160" height="36.249" viewBox="0 0 160 36.249">
  <g id="icon-jasmine" transform="translate(-8.021 -9.2)">
    <g id="jasmine-white-horizontal-copy" transform="translate(8.021 9.2)">
      <g id="logo" transform="translate(0)">
        <g id="Group_52" data-name="Group 52" transform="translate(0 0)">
          <path id="path36" d="M25.822-38.091h2.807l.7-.96v-7.521h-4.2v7.522l.7.959" transform="translate(-9.102 53.1)" fill="#fff"/>
          <path id="path38" d="M18.687-31.4l.867-2.67-.7-.96L11.7-37.357l-1.3,4,7.154,2.324,1.128-.367" transform="translate(-3.777 49.767)" fill="#fff"/>
          <path id="path40" d="M23.071-24.642,20.8-26.293l-1.129.367-4.421,6.085,3.4,2.47,4.421-6.085v-1.186" transform="translate(-5.53 45.764)" fill="#fff"/>
          <path id="path42" d="M31.6-26.293l-2.271,1.65v1.187l4.421,6.085,3.4-2.47-4.422-6.085L31.6-26.293" transform="translate(-10.623 45.764)" fill="#fff"/>
          <path id="path44" d="M32.091-34.073l.868,2.67,1.129.366,7.153-2.324-1.3-4-7.154,2.325-.7.959" transform="translate(-11.622 49.767)" fill="#fff"/>
          <path id="path46" d="M18.145-56.8A18.144,18.144,0,0,0,.021-38.679,18.146,18.146,0,0,0,18.145-20.551,18.145,18.145,0,0,0,36.267-38.679,18.142,18.142,0,0,0,18.145-56.8Zm0,3.669A14.453,14.453,0,0,1,32.6-38.679,14.456,14.456,0,0,1,18.145-24.221,14.456,14.456,0,0,1,3.69-38.679,14.453,14.453,0,0,1,18.145-53.131Z" transform="translate(-0.021 56.8)" fill="#fff"/>
          <path id="path48" d="M42.534-23.726,37.1-25.493l.36-1.108,5.437,1.767-.359,1.108" transform="translate(-13.433 45.876)" fill="#fff"/>
          <path id="path50" d="M34.216-38.784l-.942-.684,3.36-4.626.942.684-3.36,4.626" transform="translate(-12.05 52.204)" fill="#fff"/>
          <path id="path52" d="M20.269-38.85l-3.36-4.626.942-.685,3.36,4.626-.943.684" transform="translate(-6.13 52.228)" fill="#fff"/>
          <path id="path54" d="M10.977-23.834l-.36-1.108,5.437-1.766.359,1.108-5.437,1.766" transform="translate(-3.854 45.914)" fill="#fff"/>
          <path id="path56" d="M27.448-13.545h1.164v-5.717H27.448Z" transform="translate(-9.942 43.221)" fill="#fff"/>
        </g>
      </g>
      <g id="text" transform="translate(39.992 7.59)">
        <g id="Group_53" data-name="Group 53" transform="translate(0 0)">
          <path id="path22" d="M4.528-18.621a2.428,2.428,0,0,0,2.275,2.6,2.164,2.164,0,0,0,1.955-1.137,5.724,5.724,0,0,0,.408-2.625V-30.26H6.891v-3.326h8.488v3.326H13.133v10.968c0,1.867-.117,3.325-1.429,4.842a6.59,6.59,0,0,1-4.872,2.1C3.1-12.35.239-14.829.386-18.621H4.528" transform="translate(-0.38 33.585)" fill="#fff"/>
          <path id="path24" d="M37.222-17.889a4.681,4.681,0,0,0-4.7-4.638,4.738,4.738,0,0,0-4.7,4.813,4.688,4.688,0,0,0,4.638,4.638A4.75,4.75,0,0,0,37.222-17.889Zm-.058,5.775A5.761,5.761,0,0,1,32.146-9.6a8.067,8.067,0,0,1-7.992-8.109A8.235,8.235,0,0,1,32.321-26a5.6,5.6,0,0,1,4.842,2.625V-25.59h5.571v3.325H40.78v8.926h1.955v3.325H37.163Z" transform="translate(-8.98 30.841)" fill="#fff"/>
          <path id="path26" d="M58.524-14.485a2.381,2.381,0,0,0,2.509,2.333,2.026,2.026,0,0,0,2.129-1.925c0-1.546-1.458-1.809-2.654-2.13-2.713-.7-5.688-1.546-5.688-4.959,0-2.976,2.509-4.7,5.28-4.7a4.156,4.156,0,0,1,3.529,1.4V-25.54h2.625v4.23H62.812A1.908,1.908,0,0,0,60.8-23.148a1.794,1.794,0,0,0-1.983,1.633c0,1.458,1.429,1.779,2.567,2.042,2.8.642,5.8,1.517,5.8,5.018,0,3.15-2.654,4.9-5.571,4.9a5.071,5.071,0,0,1-4.026-1.692v1.283H54.878v-4.521h3.646" transform="translate(-20.074 30.791)" fill="#fff"/>
          <path id="path28" d="M77.718-22.248H75.706v-3.325h5.25v2.334a5.162,5.162,0,0,1,4.492-2.713,5.3,5.3,0,0,1,4.842,3.267,5.6,5.6,0,0,1,5.1-3.267,6.01,6.01,0,0,1,4.492,1.983c1.225,1.43,1.225,2.975,1.225,4.754v5.893h2.012V-10H95.541v-3.325h2.013v-5.017a5.809,5.809,0,0,0-.467-2.83,3.048,3.048,0,0,0-2.538-1.283,3.453,3.453,0,0,0-2.626,1.167,4.2,4.2,0,0,0-.729,2.947v5.017h2.013V-10H85.623v-3.325h2.013v-4.784a6.159,6.159,0,0,0-.467-2.917A2.856,2.856,0,0,0,84.6-22.453a3.039,3.039,0,0,0-2.479,1.138,4.546,4.546,0,0,0-.846,3.179v4.813H83.29V-10H75.706v-3.325h2.012v-8.926" transform="translate(-27.629 30.824)" fill="#fff"/>
          <path id="path30" d="M126.049-29.822H122.49v-3.763h3.559Zm0,13.739h2.012v3.325h-7.613v-3.325h2.042v-8.926h-2.013v-3.325h5.572Z" transform="translate(-43.815 33.585)" fill="#fff"/>
          <path id="path32" d="M136.079-22.232h-2.012v-3.325h5.571v2.217a5.044,5.044,0,0,1,4.609-2.567,6.174,6.174,0,0,1,4.492,1.925c1.284,1.429,1.313,2.8,1.313,4.579v6.1h2.012v3.325h-7.584v-3.325h2.012v-5.046a4.511,4.511,0,0,0-.613-2.8,3.4,3.4,0,0,0-2.742-1.254,3.5,3.5,0,0,0-2.829,1.312,5.485,5.485,0,0,0-.671,3.267v4.521h2.012v3.325h-7.584v-3.325h2.012v-8.926" transform="translate(-48.742 30.808)" fill="#fff"/>
          <path id="path34" d="M175.968-19.235a4.975,4.975,0,0,0-4.9-3.676,4.824,4.824,0,0,0-4.551,3.676Zm2.713,4.609a8,8,0,0,1-7.35,4.988,8.1,8.1,0,0,1-8.2-8.139,8.1,8.1,0,0,1,8.109-8.313,8.344,8.344,0,0,1,5.834,2.509,8.138,8.138,0,0,1,2.188,5.834l-.117,1.254h-12.6a4.805,4.805,0,0,0,4.667,3.734,4.334,4.334,0,0,0,3.763-1.866Z" transform="translate(-59.256 30.874)" fill="#fff"/>
        </g>
      </g>
    </g>
  </g>
</svg>
